<?xml version="1.0" encoding="UTF-8"?>
<!DOCTYPE svg PUBLIC "-//W3C//DTD SVG 1.1//EN" "http://www.w3.org/Graphics/SVG/1.1/DTD/svg11.dtd">
<!-- Creator: CorelDRAW -->
<svg xmlns="http://www.w3.org/2000/svg" xml:space="preserve" width="40.7654mm" height="31.7362mm" version="1.1" style="shape-rendering:geometricPrecision; text-rendering:geometricPrecision; image-rendering:optimizeQuality; fill-rule:evenodd; clip-rule:evenodd"
viewBox="0 0 9655.56 7516.93"
 xmlns:xlink="http://www.w3.org/1999/xlink"
 xmlns:xodm="http://www.corel.com/coreldraw/odm/2003">
 <defs>
  <style type="text/css">
   <![CDATA[
    .fil0 {fill:#F71964}
    .fil1 {fill:#F71964}
   ]]>
  </style>
 </defs>
 <g id="Camada_x0020_1">
  <metadata id="CorelCorpID_0Corel-Layer"/>
  <g id="_2435416495872">
   <path class="fil0" d="M87.83 2521.27l2033.13 4421.97c126.62,329.06 445.67,562.58 819.33,562.58 385.46,0 712.82,-248.44 830.77,-593.97l-505.31 -1098.99 -151.16 -328.8 -891.15 -1938.2 0.76 -6.06c-143.96,-313.79 -224.37,-662.8 -224.37,-1030.63 0,-462.68 127.12,-895.58 348.18,-1265.93l-1467.52 0 -2.84 -0.07 -2.82 0.07c-480.98,0 -874.83,393.11 -874.83,877.58 0,72.05 31.05,314.55 87.83,400.45z"/>
   <path class="fil0" d="M7672.02 1485.23l1343.1 671.58 -2233.37 4833.13 -0.05 0c-144.53,311.16 -459.76,526.98 -825.52,526.98 -400.95,0 -741.24,-259.38 -862.4,-619.45l-0.09 0 -1788.1 -3832.98 0.05 -0.05c-77.07,-165.28 -120.25,-349.6 -120.25,-544.01 0,-711.59 576.82,-1288.38 1288.38,-1288.38 711.54,0 1288.38,576.79 1288.38,1288.38 0,565.83 -364.74,1046.43 -871.94,1219.53l415.52 903.85 81.31 176.27c593.75,-236.05 1074.43,-695.25 1338.52,-1274.08l0.81 -0.33 945.65 -2060.44z"/>
   <path class="fil1" d="M6790.51 1384.1l2319.63 -1363.04c65.06,-37.85 104.74,-29.58 119.02,65.63l426.39 2645.74 -2865.04 -1348.33z"/>
  </g>
 </g>
</svg>
