<?xml version="1.0" encoding="UTF-8"?>
<!DOCTYPE svg PUBLIC "-//W3C//DTD SVG 1.1//EN" "http://www.w3.org/Graphics/SVG/1.1/DTD/svg11.dtd">
<!-- Creator: CorelDRAW -->
<svg xmlns="http://www.w3.org/2000/svg" xml:space="preserve" width="67.0455mm" height="47.0934mm" version="1.1" style="shape-rendering:geometricPrecision; text-rendering:geometricPrecision; image-rendering:optimizeQuality; fill-rule:evenodd; clip-rule:evenodd"
viewBox="0 0 6696.95 4704"
 xmlns:xlink="http://www.w3.org/1999/xlink"
 xmlns:xodm="http://www.corel.com/coreldraw/odm/2003">
 <defs>
  <style type="text/css">
   <![CDATA[
    .fil0 {fill:#373435}
   ]]>
  </style>
 </defs>
 <g id="Camada_x0020_1">
  <metadata id="CorelCorpID_0Corel-Layer"/>
  <g id="_3285117092352">
   <path class="fil0" d="M65.75 964.92l1521.73 3309.7c94.77,246.3 333.56,421.07 613.23,421.07 288.51,0 533.52,-185.95 621.8,-444.57l-378.21 -822.56 -113.13 -246.09 -667 -1450.68 0.57 -4.53c-107.74,-234.85 -167.93,-496.08 -167.93,-771.39 0,-346.3 95.14,-670.3 260.59,-947.5l-1098.38 0 -2.12 -0.06 -2.11 0.06c-360.01,0 -654.8,294.24 -654.8,656.84 0,53.91 23.24,235.42 65.75,299.71z"/>
   <path class="fil0" d="M4939.67 16.79l1098.26 0 2.11 -0.05c362.83,0 656.9,294.08 656.9,656.9 0,98.58 -21.76,192.05 -60.65,275.96l0.04 0.07 -1560.42 3359.9 -0.03 0c-108.2,232.92 -344.14,394.43 -617.9,394.43 -300.08,0 -554.77,-194.14 -645.45,-463.64l-0.08 0 -1338.34 -2868.83 0.05 -0.04c-57.69,-123.71 -89.99,-261.68 -89.99,-407.18 0,-532.59 431.68,-964.31 964.3,-964.31 532.57,0 964.29,431.72 964.29,964.31 0,423.5 -272.98,783.22 -652.59,912.78l311.01 676.49 60.85 131.93c684.29,-272.03 1168.09,-939.98 1168.09,-1721.21 0,-346.25 -95.07,-670.25 -260.48,-947.38l0.03 -0.13z"/>
  </g>
 </g>
</svg>
