<svg xmlns="http://www.w3.org/2000/svg" xmlns:xlink="http://www.w3.org/1999/xlink" width="450" zoomAndPan="magnify" viewBox="0 0 337.5 74.999997" height="100" preserveAspectRatio="xMidYMid meet" version="1.0"><defs><clipPath id="76cd758665"><path d="M 1.238281 3.152344 L 43 3.152344 L 43 71.6875 L 1.238281 71.6875 Z M 1.238281 3.152344 " clip-rule="nonzero"/></clipPath><clipPath id="1135163a10"><path d="M 35 3.152344 L 99 3.152344 L 99 71.6875 L 35 71.6875 Z M 35 3.152344 " clip-rule="nonzero"/></clipPath><clipPath id="d9c99c0f0e"><path d="M 116 3.152344 L 335.761719 3.152344 L 335.761719 56 L 116 56 Z M 116 3.152344 " clip-rule="nonzero"/></clipPath><clipPath id="5a17e3cbdd"><path d="M 140 56 L 322 56 L 322 71.6875 L 140 71.6875 Z M 140 56 " clip-rule="nonzero"/></clipPath></defs><g clip-path="url(#76cd758665)"><path fill="#020403" d="M 2.191406 17.183594 L 24.277344 65.003906 C 25.652344 68.5625 29.117188 71.089844 33.175781 71.089844 C 37.363281 71.089844 40.917969 68.402344 42.199219 64.664062 L 36.710938 52.78125 L 35.070312 49.226562 L 25.390625 28.265625 L 25.398438 28.199219 C 23.835938 24.804688 22.960938 21.03125 22.960938 17.054688 C 22.960938 12.050781 24.339844 7.371094 26.742188 3.363281 L 10.742188 3.363281 C 5.515625 3.363281 1.238281 7.617188 1.238281 12.855469 C 1.238281 13.632812 1.574219 16.253906 2.191406 17.183594 Z M 2.191406 17.183594 " fill-opacity="1" fill-rule="evenodd"/></g><g clip-path="url(#1135163a10)"><path fill="#020403" d="M 72.921875 3.484375 L 88.890625 3.484375 C 94.15625 3.484375 98.421875 7.734375 98.421875 12.976562 C 98.421875 14.402344 98.109375 15.75 97.542969 16.964844 L 74.898438 65.507812 C 73.328125 68.875 69.90625 71.207031 65.933594 71.207031 C 61.578125 71.207031 57.882812 68.402344 56.566406 64.507812 L 56.5625 64.507812 L 37.140625 23.058594 C 36.304688 21.269531 35.835938 19.277344 35.835938 17.175781 C 35.835938 9.480469 42.101562 3.242188 49.832031 3.242188 C 57.558594 3.242188 63.824219 9.480469 63.824219 17.175781 C 63.824219 23.292969 59.863281 28.492188 54.351562 30.363281 L 58.867188 40.136719 L 59.75 42.042969 C 69.679688 38.113281 76.703125 28.464844 76.703125 17.175781 C 76.703125 12.171875 75.320312 7.492188 72.921875 3.488281 Z M 72.921875 3.484375 " fill-opacity="1" fill-rule="evenodd"/></g><g clip-path="url(#d9c99c0f0e)"><path fill="#000000" d="M 131.03125 14.351562 C 134.902344 14.351562 138.382812 15.792969 141.496094 18.683594 C 144.476562 21.800781 145.960938 25.296875 145.960938 29.1875 C 145.960938 34.746094 143.332031 39.117188 138.0625 42.28125 C 135.742188 43.441406 133.519531 44.023438 131.371094 44.023438 L 130.539062 44.023438 C 127.066406 44.023438 124.160156 42.96875 121.835938 40.867188 L 121.835938 53.09375 C 121.835938 54.40625 120.898438 55.261719 119.023438 55.667969 C 117.539062 55.667969 116.582031 54.734375 116.15625 52.878906 L 116.15625 30.089844 C 116.15625 22.640625 119.695312 17.609375 126.785156 15.007812 C 127.691406 14.71875 129.109375 14.5 131.03125 14.351562 Z M 121.949219 28.886719 L 121.949219 29.402344 C 121.949219 32.804688 123.613281 35.453125 126.933594 37.347656 C 128.117188 37.957031 129.386719 38.257812 130.757812 38.257812 L 131.363281 38.257812 C 134.929688 38.257812 137.65625 36.421875 139.539062 32.75 C 139.964844 31.609375 140.171875 30.496094 140.171875 29.40625 L 140.171875 28.886719 C 140.171875 26.050781 138.855469 23.660156 136.234375 21.691406 C 134.683594 20.644531 132.925781 20.117188 130.945312 20.117188 C 127.078125 20.117188 124.230469 22.160156 122.421875 26.238281 C 122.109375 27.210938 121.949219 28.09375 121.949219 28.886719 Z M 165.246094 26.804688 L 160.03125 42.835938 C 159.351562 43.742188 158.554688 44.195312 157.648438 44.195312 L 157.5625 44.195312 C 156.199219 44.195312 155.242188 43.394531 154.714844 41.792969 L 147.003906 17.621094 C 147.390625 15.667969 148.363281 14.691406 149.917969 14.691406 C 151.628906 14.691406 152.773438 16.261719 153.351562 19.410156 L 157.589844 32.324219 C 160.976562 21.652344 162.832031 16.09375 163.160156 15.660156 C 163.804688 15.105469 164.515625 14.785156 165.273438 14.691406 C 166.984375 14.691406 168.09375 16.027344 168.566406 18.691406 L 173.003906 32.324219 C 176.21875 22.207031 178.007812 16.753906 178.375 15.960938 C 179.171875 15.113281 179.976562 14.691406 180.789062 14.691406 C 182.664062 15.058594 183.589844 16.054688 183.589844 17.695312 L 175.414062 43.035156 C 174.582031 43.808594 173.796875 44.191406 173.058594 44.191406 L 172.972656 44.191406 C 171.253906 44.191406 170.097656 42.667969 169.511719 39.613281 C 167.421875 33.304688 166 29.035156 165.246094 26.804688 Z M 204.125 14.746094 C 205.503906 14.746094 206.394531 15.347656 206.78125 16.566406 C 208.277344 15.347656 210.445312 14.746094 213.292969 14.746094 C 217.058594 14.746094 220.09375 16.140625 222.402344 18.9375 C 223.195312 17.46875 225.421875 16.179688 229.082031 15.074219 L 231.523438 14.746094 C 236.132812 14.746094 239.753906 16.921875 242.394531 21.265625 C 243.285156 23.09375 243.730469 24.835938 243.730469 26.511719 L 243.730469 41.652344 C 243.730469 42.996094 242.832031 43.84375 241.042969 44.195312 L 240.796875 44.195312 C 239.007812 43.882812 238.109375 42.960938 238.109375 41.433594 L 238.109375 26.730469 C 238.109375 23.78125 236.558594 21.746094 233.445312 20.625 L 232.167969 20.457031 L 231.191406 20.457031 C 228.734375 20.457031 226.839844 21.898438 225.527344 24.769531 C 225.363281 25.371094 225.28125 25.890625 225.28125 26.3125 L 225.28125 41.433594 C 224.949219 43.269531 224.03125 44.195312 222.535156 44.195312 L 222.347656 44.195312 C 220.558594 43.882812 219.660156 42.996094 219.660156 41.535156 L 219.660156 29.046875 C 219.660156 25.824219 219.261719 23.847656 218.464844 23.109375 C 217.132812 21.339844 215.4375 20.457031 213.367188 20.457031 L 213.066406 20.457031 C 210.214844 20.457031 208.210938 21.980469 207.046875 25.042969 C 206.867188 25.777344 206.773438 26.785156 206.773438 28.058594 L 206.773438 41.535156 C 206.773438 42.996094 205.875 43.882812 204.085938 44.195312 L 203.925781 44.195312 C 202.429688 44.195312 201.503906 43.269531 201.152344 41.433594 L 201.152344 17.863281 C 201.359375 15.78125 202.34375 14.746094 204.125 14.746094 Z M 256.636719 4.628906 C 258.5 5.054688 259.4375 5.976562 259.4375 7.390625 L 259.4375 7.578125 C 259.4375 8.351562 258.632812 9.640625 257.023438 11.449219 C 255.746094 13.363281 254.476562 14.3125 253.199219 14.3125 L 253.085938 14.3125 C 251.773438 14.3125 250.929688 13.425781 250.542969 11.636719 L 250.542969 11.335938 C 250.542969 10.527344 251.660156 8.867188 253.890625 6.371094 C 254.742188 5.214844 255.660156 4.628906 256.636719 4.628906 Z M 254.742188 14.746094 C 256.492188 15.207031 257.371094 16.054688 257.371094 17.289062 L 257.371094 41.546875 C 257.371094 42.996094 256.484375 43.882812 254.714844 44.195312 L 254.523438 44.195312 C 253.03125 44.195312 252.101562 43.261719 251.753906 41.40625 L 251.753906 17.835938 C 251.96875 15.773438 252.972656 14.746094 254.742188 14.746094 Z M 288.585938 2.992188 L 289.089844 2.992188 C 290.839844 3.359375 291.71875 4.195312 291.71875 5.503906 L 291.71875 26.164062 L 291.832031 29.695312 C 291.832031 32.605469 290.648438 35.632812 288.285156 38.777344 C 284.933594 42.382812 281.160156 44.195312 276.96875 44.195312 L 276.136719 44.195312 C 272.027344 44.195312 268.214844 42.289062 264.707031 38.476562 C 262.539062 35.441406 261.460938 32.296875 261.460938 29.054688 C 261.460938 24.164062 263.644531 20.050781 268.007812 16.714844 C 270.78125 14.878906 273.667969 13.953125 276.664062 13.953125 C 280.515625 13.953125 283.65625 15.039062 286.097656 17.207031 L 286.097656 7.296875 L 285.984375 5.503906 C 286.523438 3.828125 287.386719 2.992188 288.585938 2.992188 Z M 267.195312 28.753906 L 267.195312 29.28125 C 267.195312 33.191406 269.257812 36.101562 273.382812 38.015625 C 274.460938 38.324219 275.433594 38.484375 276.324219 38.484375 L 276.96875 38.484375 C 280.78125 38.484375 283.667969 36.441406 285.625 32.351562 C 285.9375 31.117188 286.097656 30.167969 286.097656 29.5 L 286.097656 28.867188 C 286.097656 24.976562 284.007812 22.066406 279.824219 20.136719 C 278.546875 19.824219 277.554688 19.664062 276.855469 19.664062 L 276.4375 19.664062 C 272.625 19.664062 269.738281 21.679688 267.78125 25.722656 C 267.394531 26.839844 267.195312 27.851562 267.195312 28.753906 Z M 299.609375 7.003906 C 301.4375 7.464844 302.355469 8.332031 302.355469 9.59375 L 302.355469 10.207031 C 302.355469 11.65625 301.371094 12.523438 299.390625 12.796875 C 297.964844 12.796875 297.035156 11.835938 296.589844 9.90625 C 296.980469 7.972656 297.984375 7.003906 299.609375 7.003906 Z M 299.609375 14.117188 C 301.4375 14.566406 302.355469 15.433594 302.355469 16.707031 L 302.355469 41.492188 C 302.355469 42.980469 301.425781 43.882812 299.582031 44.195312 L 299.421875 44.195312 C 297.90625 44.195312 296.96875 43.25 296.621094 41.378906 L 296.621094 17.261719 C 296.835938 15.160156 297.839844 14.117188 299.609375 14.117188 Z M 311.464844 29.039062 L 311.464844 29.339844 C 311.464844 33.105469 313.367188 35.933594 317.160156 37.828125 C 318.34375 38.269531 319.402344 38.484375 320.351562 38.484375 L 321.144531 38.484375 C 324.285156 38.484375 326.878906 36.910156 328.921875 33.773438 C 329.660156 32.304688 330.027344 30.902344 330.027344 29.5625 L 330.027344 29.148438 C 330.027344 25.53125 328.230469 22.753906 324.636719 20.832031 C 323.394531 20.277344 322.109375 20.003906 320.765625 20.003906 L 320.652344 20.003906 C 316.828125 20.003906 313.953125 21.992188 312.023438 25.957031 C 311.65625 27.164062 311.464844 28.191406 311.464844 29.039062 Z M 330.027344 41.039062 C 327.777344 43.140625 324.804688 44.195312 321.117188 44.195312 L 320.3125 44.195312 C 315.222656 44.195312 310.984375 41.652344 307.585938 36.574219 C 306.347656 34.105469 305.730469 31.636719 305.730469 29.148438 C 305.730469 23.59375 308.464844 19.183594 313.933594 15.925781 C 316.273438 14.839844 318.542969 14.292969 320.765625 14.292969 C 326.433594 14.292969 330.925781 17.054688 334.238281 22.574219 C 335.25 24.84375 335.761719 27.171875 335.761719 29.5625 L 335.761719 41.519531 C 335.761719 42.988281 334.855469 43.882812 333.039062 44.195312 L 332.839844 44.195312 C 331.578125 44.195312 330.644531 43.460938 330.027344 41.980469 Z M 330.027344 41.039062 " fill-opacity="1" fill-rule="nonzero"/></g><g clip-path="url(#5a17e3cbdd)"><path fill="#000000" d="M 140.472656 59.324219 L 142.5625 59.324219 C 143.480469 59.324219 144.058594 59.703125 144.296875 60.464844 C 144.445312 60.941406 144.519531 61.5 144.519531 62.136719 C 144.519531 62.777344 144.503906 63.257812 144.464844 63.578125 C 144.386719 64.28125 144.199219 64.796875 143.90625 65.121094 C 143.609375 65.441406 143.164062 65.605469 142.558594 65.605469 L 141.691406 65.605469 L 141.691406 69.664062 L 140.472656 69.664062 Z M 143.296875 62.246094 C 143.296875 61.535156 143.242188 61.03125 143.132812 60.734375 C 143.019531 60.433594 142.796875 60.285156 142.464844 60.285156 L 141.691406 60.285156 L 141.691406 64.59375 L 142.4375 64.59375 C 142.78125 64.59375 143.015625 64.441406 143.128906 64.140625 C 143.242188 63.839844 143.296875 63.273438 143.296875 62.441406 L 143.296875 62.242188 Z M 147.945312 59.324219 L 150.121094 59.324219 C 150.742188 59.324219 151.183594 59.449219 151.457031 59.703125 C 151.726562 59.960938 151.890625 60.394531 151.945312 61.003906 C 151.96875 61.253906 151.980469 61.644531 151.980469 62.175781 C 151.980469 62.707031 151.910156 63.152344 151.773438 63.511719 C 151.628906 63.871094 151.386719 64.105469 151.03125 64.210938 C 151.289062 64.253906 151.488281 64.390625 151.621094 64.621094 C 151.753906 64.847656 151.847656 65.214844 151.90625 65.714844 C 151.960938 66.214844 151.988281 66.957031 151.988281 67.941406 C 151.988281 68.925781 152.019531 69.5 152.082031 69.664062 L 150.867188 69.664062 C 150.804688 69.539062 150.769531 68.378906 150.769531 66.183594 C 150.769531 65.441406 150.699219 65.011719 150.554688 64.890625 C 150.40625 64.769531 150.1875 64.710938 149.890625 64.710938 L 149.164062 64.671875 L 149.164062 69.664062 L 147.945312 69.664062 Z M 150.769531 61.855469 C 150.769531 61.0625 150.699219 60.597656 150.554688 60.476562 C 150.410156 60.347656 150.203125 60.285156 149.933594 60.285156 L 149.164062 60.285156 L 149.164062 63.777344 L 149.945312 63.777344 C 150.179688 63.777344 150.355469 63.730469 150.464844 63.640625 C 150.574219 63.550781 150.65625 63.378906 150.699219 63.125 C 150.75 62.871094 150.769531 62.46875 150.769531 61.925781 Z M 155.671875 62.132812 C 155.671875 60.957031 155.886719 60.148438 156.308594 59.710938 C 156.644531 59.367188 157.128906 59.191406 157.765625 59.191406 C 158.695312 59.191406 159.289062 59.574219 159.550781 60.335938 C 159.703125 60.785156 159.78125 61.382812 159.78125 62.132812 L 159.78125 66.691406 C 159.78125 67.769531 159.628906 68.554688 159.324219 69.046875 C 159.023438 69.539062 158.492188 69.785156 157.734375 69.785156 C 156.976562 69.785156 156.445312 69.539062 156.136719 69.042969 C 155.828125 68.546875 155.671875 67.765625 155.671875 66.691406 Z M 158.558594 62.0625 C 158.558594 61.398438 158.503906 60.929688 158.398438 60.652344 C 158.292969 60.378906 158.078125 60.238281 157.753906 60.238281 C 157.429688 60.238281 157.207031 60.378906 157.082031 60.664062 C 156.957031 60.945312 156.894531 61.410156 156.894531 62.054688 L 156.894531 66.703125 C 156.894531 67.492188 156.949219 68.027344 157.058594 68.3125 C 157.167969 68.59375 157.390625 68.734375 157.726562 68.734375 C 158.058594 68.734375 158.28125 68.589844 158.390625 68.304688 C 158.503906 68.015625 158.558594 67.480469 158.558594 66.703125 Z M 163.464844 62.308594 C 163.464844 61.523438 163.53125 60.949219 163.660156 60.582031 C 163.789062 60.210938 163.929688 59.941406 164.085938 59.769531 C 164.417969 59.394531 164.90625 59.203125 165.546875 59.199219 C 166.445312 59.203125 167.023438 59.597656 167.285156 60.378906 C 167.433594 60.832031 167.507812 61.429688 167.507812 62.179688 L 167.507812 63.324219 L 166.308594 63.324219 L 166.308594 62.171875 C 166.308594 61.511719 166.273438 61.0625 166.199219 60.828125 C 166.128906 60.597656 166.039062 60.441406 165.9375 60.367188 C 165.835938 60.289062 165.707031 60.25 165.546875 60.25 C 165.222656 60.25 164.996094 60.402344 164.871094 60.710938 C 164.75 61.019531 164.6875 61.503906 164.6875 62.167969 L 164.6875 66.644531 C 164.6875 67.429688 164.742188 67.976562 164.855469 68.285156 C 164.96875 68.597656 165.183594 68.753906 165.503906 68.753906 C 165.824219 68.753906 166.039062 68.597656 166.148438 68.28125 C 166.257812 67.96875 166.308594 67.421875 166.308594 66.636719 L 166.308594 65.492188 L 167.519531 65.492188 L 167.519531 66.625 C 167.519531 67.710938 167.371094 68.511719 167.074219 69.023438 C 166.777344 69.53125 166.257812 69.789062 165.519531 69.789062 C 164.78125 69.789062 164.253906 69.523438 163.9375 68.996094 C 163.621094 68.472656 163.464844 67.675781 163.464844 66.613281 Z M 171.21875 59.324219 L 174.324219 59.324219 L 174.324219 60.335938 L 172.441406 60.335938 L 172.441406 63.871094 L 174.222656 63.871094 L 174.222656 64.882812 L 172.441406 64.882812 L 172.441406 68.652344 L 174.347656 68.652344 L 174.347656 69.664062 L 171.21875 69.664062 Z M 177.871094 62.523438 C 177.800781 62.277344 177.769531 61.984375 177.769531 61.636719 C 177.769531 60.890625 177.90625 60.296875 178.183594 59.855469 C 178.460938 59.414062 178.992188 59.191406 179.773438 59.191406 C 180.78125 59.191406 181.375 59.675781 181.554688 60.640625 C 181.632812 61.054688 181.675781 61.578125 181.675781 62.207031 L 181.675781 62.820312 L 180.503906 62.820312 L 180.503906 62.125 C 180.503906 61.46875 180.472656 61.023438 180.40625 60.796875 C 180.339844 60.570312 180.257812 60.421875 180.15625 60.347656 C 180.058594 60.269531 179.933594 60.234375 179.773438 60.234375 C 179.480469 60.234375 179.265625 60.34375 179.136719 60.558594 C 179.007812 60.773438 178.941406 61.09375 178.941406 61.515625 C 178.941406 61.9375 179 62.25 179.117188 62.441406 C 179.238281 62.640625 179.382812 62.824219 179.554688 63.003906 C 179.726562 63.183594 179.824219 63.285156 179.84375 63.308594 L 180.550781 64.054688 C 181.402344 64.941406 181.828125 65.929688 181.828125 67.027344 C 181.828125 67.921875 181.6875 68.601562 181.410156 69.074219 C 181.132812 69.546875 180.605469 69.785156 179.828125 69.785156 C 178.886719 69.785156 178.289062 69.371094 178.039062 68.546875 C 177.890625 68.085938 177.820312 67.480469 177.820312 66.734375 C 177.820312 66.710938 177.820312 66.695312 177.820312 66.675781 L 177.820312 65.667969 L 179.007812 65.667969 L 179.007812 66.71875 C 179.007812 67.476562 179.0625 68.003906 179.171875 68.300781 C 179.28125 68.59375 179.484375 68.742188 179.785156 68.742188 C 180.085938 68.742188 180.289062 68.671875 180.40625 68.53125 C 180.519531 68.394531 180.585938 68.183594 180.601562 67.894531 C 180.621094 67.609375 180.628906 67.285156 180.628906 66.933594 C 180.628906 66.214844 180.3125 65.539062 179.679688 64.910156 L 179 64.234375 C 178.394531 63.613281 178.019531 63.046875 177.875 62.523438 Z M 185.242188 62.523438 C 185.171875 62.277344 185.136719 61.984375 185.136719 61.636719 C 185.136719 60.890625 185.273438 60.296875 185.550781 59.855469 C 185.828125 59.414062 186.359375 59.191406 187.140625 59.191406 C 188.148438 59.191406 188.742188 59.675781 188.921875 60.640625 C 189.003906 61.054688 189.042969 61.578125 189.042969 62.207031 L 189.042969 62.820312 L 187.875 62.820312 L 187.875 62.125 C 187.875 61.46875 187.839844 61.023438 187.773438 60.796875 C 187.707031 60.570312 187.625 60.421875 187.527344 60.347656 C 187.425781 60.269531 187.300781 60.234375 187.144531 60.234375 C 186.847656 60.234375 186.636719 60.34375 186.503906 60.558594 C 186.375 60.773438 186.308594 61.09375 186.308594 61.515625 C 186.308594 61.9375 186.367188 62.25 186.484375 62.441406 C 186.605469 62.640625 186.75 62.824219 186.921875 63.003906 C 187.097656 63.183594 187.191406 63.285156 187.214844 63.308594 L 187.917969 64.054688 C 188.769531 64.941406 189.195312 65.929688 189.195312 67.027344 C 189.195312 67.921875 189.054688 68.601562 188.78125 69.074219 C 188.503906 69.546875 187.972656 69.785156 187.195312 69.785156 C 186.253906 69.785156 185.65625 69.371094 185.40625 68.546875 C 185.261719 68.085938 185.1875 67.480469 185.1875 66.734375 C 185.1875 66.710938 185.1875 66.695312 185.1875 66.675781 L 185.1875 65.667969 L 186.375 65.667969 L 186.375 66.71875 C 186.375 67.476562 186.429688 68.003906 186.539062 68.300781 C 186.652344 68.59375 186.855469 68.742188 187.152344 68.742188 C 187.453125 68.742188 187.660156 68.671875 187.773438 68.53125 C 187.886719 68.394531 187.953125 68.183594 187.972656 67.894531 C 187.988281 67.609375 187.996094 67.285156 187.996094 66.933594 C 187.996094 66.214844 187.679688 65.539062 187.046875 64.910156 L 186.371094 64.234375 C 185.761719 63.613281 185.386719 63.046875 185.242188 62.523438 Z M 192.609375 62.132812 C 192.609375 60.957031 192.824219 60.148438 193.246094 59.710938 C 193.582031 59.367188 194.066406 59.191406 194.703125 59.191406 C 195.632812 59.191406 196.226562 59.574219 196.488281 60.335938 C 196.640625 60.785156 196.71875 61.382812 196.71875 62.132812 L 196.71875 66.691406 C 196.71875 67.769531 196.566406 68.554688 196.265625 69.046875 C 195.960938 69.539062 195.429688 69.785156 194.671875 69.785156 C 193.914062 69.785156 193.382812 69.539062 193.074219 69.042969 C 192.765625 68.546875 192.609375 67.765625 192.609375 66.691406 Z M 195.496094 62.0625 C 195.496094 61.398438 195.441406 60.929688 195.335938 60.652344 C 195.230469 60.378906 195.015625 60.238281 194.691406 60.238281 C 194.367188 60.238281 194.144531 60.378906 194.019531 60.664062 C 193.894531 60.945312 193.832031 61.410156 193.832031 62.054688 L 193.832031 66.703125 C 193.832031 67.492188 193.886719 68.027344 193.996094 68.3125 C 194.105469 68.59375 194.328125 68.734375 194.664062 68.734375 C 194.996094 68.734375 195.21875 68.589844 195.328125 68.304688 C 195.441406 68.015625 195.496094 67.480469 195.496094 66.703125 Z M 200.402344 62.523438 C 200.332031 62.277344 200.296875 61.984375 200.296875 61.636719 C 200.296875 60.890625 200.433594 60.296875 200.710938 59.855469 C 200.988281 59.414062 201.519531 59.191406 202.304688 59.191406 C 203.308594 59.191406 203.902344 59.675781 204.085938 60.640625 C 204.164062 61.054688 204.203125 61.578125 204.203125 62.207031 L 204.203125 62.820312 L 203.035156 62.820312 L 203.035156 62.125 C 203.035156 61.46875 203 61.023438 202.933594 60.796875 C 202.867188 60.570312 202.785156 60.421875 202.6875 60.347656 C 202.585938 60.269531 202.460938 60.234375 202.304688 60.234375 C 202.007812 60.234375 201.796875 60.34375 201.664062 60.558594 C 201.535156 60.773438 201.472656 61.09375 201.472656 61.515625 C 201.472656 61.9375 201.53125 62.25 201.648438 62.441406 C 201.765625 62.640625 201.910156 62.824219 202.082031 63.003906 C 202.257812 63.183594 202.351562 63.285156 202.375 63.308594 L 203.082031 64.054688 C 203.929688 64.941406 204.355469 65.929688 204.355469 67.027344 C 204.355469 67.921875 204.214844 68.601562 203.941406 69.074219 C 203.664062 69.546875 203.136719 69.785156 202.355469 69.785156 C 201.414062 69.785156 200.816406 69.371094 200.566406 68.546875 C 200.421875 68.085938 200.347656 67.480469 200.347656 66.734375 C 200.347656 66.710938 200.347656 66.695312 200.347656 66.675781 L 200.347656 65.667969 L 201.535156 65.667969 L 201.535156 66.71875 C 201.535156 67.476562 201.589844 68.003906 201.699219 68.300781 C 201.8125 68.59375 202.015625 68.742188 202.316406 68.742188 C 202.613281 68.742188 202.820312 68.671875 202.933594 68.53125 C 203.046875 68.394531 203.113281 68.183594 203.132812 67.894531 C 203.148438 67.609375 203.15625 67.285156 203.15625 66.933594 C 203.15625 66.214844 202.839844 65.539062 202.207031 64.910156 L 201.53125 64.234375 C 200.921875 63.613281 200.546875 63.046875 200.402344 62.523438 Z M 207.742188 68.28125 L 209.261719 68.28125 L 209.261719 69.613281 L 208.667969 71.6875 L 208.042969 71.6875 L 208.472656 69.664062 L 207.742188 69.664062 Z M 215.121094 59.324219 L 218.550781 59.324219 L 218.550781 60.335938 L 217.480469 60.335938 L 217.480469 69.664062 L 216.265625 69.664062 L 216.265625 60.335938 L 215.121094 60.335938 Z M 221.785156 59.324219 L 223.964844 59.324219 C 224.582031 59.324219 225.027344 59.449219 225.296875 59.703125 C 225.570312 59.957031 225.734375 60.390625 225.789062 61.003906 C 225.8125 61.253906 225.824219 61.644531 225.824219 62.175781 C 225.824219 62.707031 225.753906 63.152344 225.613281 63.511719 C 225.472656 63.871094 225.226562 64.105469 224.871094 64.210938 C 225.132812 64.253906 225.328125 64.390625 225.460938 64.621094 C 225.597656 64.847656 225.691406 65.214844 225.746094 65.714844 C 225.800781 66.214844 225.828125 66.953125 225.828125 67.941406 C 225.828125 68.925781 225.859375 69.5 225.925781 69.664062 L 224.707031 69.664062 C 224.644531 69.539062 224.613281 68.378906 224.613281 66.179688 C 224.613281 65.441406 224.539062 65.011719 224.394531 64.890625 C 224.25 64.769531 224.027344 64.710938 223.734375 64.710938 L 223.007812 64.671875 L 223.007812 69.664062 L 221.785156 69.664062 Z M 224.613281 61.855469 C 224.613281 61.058594 224.542969 60.597656 224.398438 60.472656 C 224.253906 60.347656 224.046875 60.285156 223.773438 60.285156 L 223.007812 60.285156 L 223.007812 63.777344 L 223.785156 63.777344 C 224.023438 63.777344 224.195312 63.730469 224.304688 63.640625 C 224.417969 63.550781 224.496094 63.378906 224.542969 63.125 C 224.589844 62.867188 224.613281 62.46875 224.613281 61.925781 Z M 230.375 57.875 L 232.847656 56.855469 L 232.847656 58.023438 L 230.375 58.527344 Z M 230.746094 59.324219 L 232.214844 59.324219 L 233.933594 69.664062 L 232.78125 69.664062 L 232.488281 67.691406 L 230.605469 67.691406 L 230.335938 69.664062 L 229.171875 69.664062 L 230.75 59.324219 Z M 230.742188 66.703125 L 232.335938 66.703125 L 231.511719 61.238281 L 231.496094 61.238281 Z M 237.386719 59.324219 L 240.515625 59.324219 L 240.515625 60.339844 L 238.601562 60.339844 L 238.601562 63.605469 L 240.398438 63.605469 L 240.398438 64.636719 L 238.601562 64.636719 L 238.601562 69.664062 L 237.386719 69.664062 Z M 244.019531 59.324219 L 247.125 59.324219 L 247.125 60.335938 L 245.238281 60.335938 L 245.238281 63.871094 L 247.023438 63.871094 L 247.023438 64.882812 L 245.238281 64.882812 L 245.238281 68.652344 L 247.148438 68.652344 L 247.148438 69.664062 L 244.019531 69.664062 Z M 250.671875 62.25 C 250.671875 60.730469 251.035156 59.785156 251.757812 59.417969 C 252.042969 59.273438 252.351562 59.203125 252.691406 59.199219 C 253.324219 59.199219 253.78125 59.332031 254.066406 59.601562 C 254.351562 59.871094 254.53125 60.222656 254.613281 60.664062 C 254.699219 61.105469 254.738281 61.640625 254.738281 62.269531 L 254.738281 63.070312 L 253.558594 63.070312 L 253.558594 61.726562 C 253.558594 61.195312 253.503906 60.820312 253.394531 60.59375 C 253.289062 60.363281 253.074219 60.25 252.757812 60.25 C 252.441406 60.25 252.21875 60.394531 252.089844 60.679688 C 251.960938 60.964844 251.894531 61.472656 251.894531 62.195312 L 251.894531 66.542969 C 251.894531 67.371094 251.953125 67.945312 252.066406 68.269531 C 252.179688 68.589844 252.40625 68.753906 252.742188 68.753906 C 253.078125 68.753906 253.308594 68.585938 253.433594 68.253906 C 253.554688 67.921875 253.617188 67.34375 253.617188 66.523438 L 253.617188 65.175781 L 252.773438 65.175781 L 252.773438 64.234375 L 254.738281 64.234375 L 254.738281 69.664062 L 254.097656 69.664062 L 253.929688 68.867188 C 253.699219 69.464844 253.253906 69.765625 252.601562 69.765625 C 251.945312 69.765625 251.460938 69.511719 251.144531 69.003906 C 250.828125 68.496094 250.671875 67.691406 250.671875 66.585938 Z M 258.453125 62.132812 C 258.453125 60.957031 258.667969 60.148438 259.089844 59.710938 C 259.425781 59.367188 259.910156 59.191406 260.546875 59.191406 C 261.476562 59.191406 262.070312 59.574219 262.332031 60.332031 C 262.484375 60.785156 262.5625 61.382812 262.5625 62.132812 L 262.5625 66.691406 C 262.5625 67.769531 262.410156 68.554688 262.105469 69.046875 C 261.804688 69.539062 261.273438 69.785156 260.515625 69.785156 C 259.757812 69.785156 259.226562 69.539062 258.917969 69.042969 C 258.609375 68.546875 258.453125 67.765625 258.453125 66.691406 Z M 261.339844 62.0625 C 261.339844 61.398438 261.285156 60.929688 261.179688 60.652344 C 261.074219 60.378906 260.859375 60.238281 260.535156 60.238281 C 260.210938 60.238281 259.988281 60.378906 259.863281 60.664062 C 259.738281 60.941406 259.675781 61.410156 259.675781 62.054688 L 259.675781 66.703125 C 259.675781 67.488281 259.730469 68.027344 259.839844 68.308594 C 259.949219 68.59375 260.171875 68.734375 260.507812 68.734375 C 260.839844 68.734375 261.0625 68.589844 261.171875 68.304688 C 261.285156 68.015625 261.339844 67.480469 261.339844 66.703125 Z M 269.332031 59.324219 L 272.4375 59.324219 L 272.4375 60.332031 L 270.554688 60.332031 L 270.554688 63.871094 L 272.335938 63.871094 L 272.335938 64.882812 L 270.554688 64.882812 L 270.554688 68.652344 L 272.460938 68.652344 L 272.460938 69.664062 L 269.332031 69.664062 Z M 282.15625 59.324219 L 283.304688 59.324219 L 281.730469 69.664062 L 280.308594 69.664062 L 278.578125 59.324219 L 279.742188 59.324219 L 280.433594 63.699219 L 281.023438 67.546875 L 281.042969 67.546875 L 281.558594 63.699219 Z M 286.730469 59.324219 L 289.835938 59.324219 L 289.835938 60.332031 L 287.953125 60.332031 L 287.953125 63.871094 L 289.734375 63.871094 L 289.734375 64.882812 L 287.953125 64.882812 L 287.953125 68.652344 L 289.859375 68.652344 L 289.859375 69.664062 L 286.730469 69.664062 Z M 296.707031 59.324219 L 297.789062 59.324219 L 297.789062 69.664062 L 296.890625 69.664062 L 294.558594 62.566406 L 294.628906 65.175781 L 294.628906 69.664062 L 293.503906 69.664062 L 293.503906 59.324219 L 294.421875 59.324219 L 296.832031 66.359375 L 296.707031 63.371094 Z M 301.703125 59.324219 L 303.65625 59.324219 C 304.449219 59.324219 305 59.566406 305.296875 60.050781 C 305.597656 60.542969 305.746094 61.234375 305.746094 62.128906 L 305.75 66.671875 C 305.75 67.734375 305.589844 68.5 305.261719 68.964844 C 304.933594 69.433594 304.386719 69.664062 303.613281 69.664062 L 301.703125 69.664062 Z M 304.527344 62.101562 C 304.527344 61.453125 304.453125 60.992188 304.300781 60.707031 C 304.144531 60.429688 303.894531 60.285156 303.542969 60.285156 L 302.917969 60.285156 L 302.917969 68.683594 L 303.542969 68.683594 C 303.78125 68.683594 303.964844 68.636719 304.097656 68.542969 C 304.386719 68.339844 304.53125 67.78125 304.53125 66.863281 L 304.53125 62.101562 Z M 310.585938 59.324219 L 312.054688 59.324219 L 313.773438 69.664062 L 312.621094 69.664062 L 312.328125 67.691406 L 310.445312 67.691406 L 310.175781 69.664062 L 309.011719 69.664062 Z M 310.582031 66.703125 L 312.175781 66.703125 L 311.351562 61.238281 L 311.335938 61.238281 Z M 317.113281 62.523438 C 317.042969 62.277344 317.011719 61.984375 317.011719 61.636719 C 317.011719 60.890625 317.148438 60.296875 317.425781 59.855469 C 317.703125 59.414062 318.234375 59.191406 319.015625 59.191406 C 320.023438 59.191406 320.617188 59.675781 320.796875 60.640625 C 320.875 61.054688 320.917969 61.578125 320.917969 62.207031 L 320.917969 62.820312 L 319.746094 62.820312 L 319.746094 62.125 C 319.746094 61.46875 319.714844 61.023438 319.648438 60.796875 C 319.582031 60.570312 319.496094 60.421875 319.398438 60.347656 C 319.300781 60.269531 319.175781 60.234375 319.015625 60.234375 C 318.71875 60.234375 318.507812 60.34375 318.378906 60.554688 C 318.25 60.769531 318.183594 61.09375 318.183594 61.515625 C 318.183594 61.9375 318.242188 62.246094 318.359375 62.441406 C 318.480469 62.640625 318.625 62.824219 318.796875 63.003906 C 318.96875 63.183594 319.066406 63.28125 319.085938 63.308594 L 319.792969 64.050781 C 320.644531 64.941406 321.070312 65.929688 321.070312 67.027344 C 321.070312 67.917969 320.929688 68.601562 320.652344 69.074219 C 320.375 69.546875 319.847656 69.78125 319.070312 69.78125 C 318.128906 69.78125 317.53125 69.371094 317.28125 68.546875 C 317.132812 68.085938 317.0625 67.480469 317.0625 66.730469 C 317.0625 66.710938 317.0625 66.695312 317.0625 66.671875 L 317.0625 65.667969 L 318.246094 65.667969 L 318.246094 66.71875 C 318.246094 67.476562 318.304688 68 318.414062 68.296875 C 318.523438 68.59375 318.726562 68.742188 319.027344 68.742188 C 319.328125 68.742188 319.53125 68.671875 319.648438 68.53125 C 319.761719 68.394531 319.828125 68.183594 319.84375 67.894531 C 319.863281 67.609375 319.871094 67.285156 319.871094 66.933594 C 319.871094 66.214844 319.554688 65.539062 318.921875 64.910156 L 318.242188 64.234375 C 317.636719 63.613281 317.261719 63.046875 317.113281 62.523438 Z M 317.113281 62.523438 " fill-opacity="1" fill-rule="nonzero"/></g></svg>