<svg xmlns="http://www.w3.org/2000/svg" xmlns:xlink="http://www.w3.org/1999/xlink" width="450" zoomAndPan="magnify" viewBox="0 0 337.5 74.999997" height="100" preserveAspectRatio="xMidYMid meet" version="1.0"><defs><clipPath id="48a7b351a6"><path d="M 6.28125 4.230469 L 46 4.230469 L 46 70.613281 L 6.28125 70.613281 Z M 6.28125 4.230469 " clip-rule="nonzero"/></clipPath><clipPath id="355d875319"><path d="M 39 4.230469 L 101 4.230469 L 101 70.613281 L 39 70.613281 Z M 39 4.230469 " clip-rule="nonzero"/></clipPath><clipPath id="83f7db4a4e"><path d="M 117 4.230469 L 330.292969 4.230469 L 330.292969 56 L 117 56 Z M 117 4.230469 " clip-rule="nonzero"/></clipPath><clipPath id="b4ce465487"><path d="M 141 56 L 317 56 L 317 70.613281 L 141 70.613281 Z M 141 56 " clip-rule="nonzero"/></clipPath></defs><g clip-path="url(#48a7b351a6)"><path fill="#f9fafb" d="M 7.207031 17.824219 L 28.59375 64.140625 C 29.925781 67.585938 33.285156 70.03125 37.214844 70.03125 C 41.269531 70.03125 44.714844 67.429688 45.957031 63.8125 L 40.640625 52.300781 L 39.050781 48.855469 L 29.675781 28.554688 L 29.683594 28.492188 C 28.167969 25.207031 27.320312 21.550781 27.320312 17.695312 C 27.320312 12.851562 28.660156 8.316406 30.984375 4.4375 L 15.484375 4.4375 C 10.425781 4.4375 6.28125 8.554688 6.28125 13.628906 C 6.28125 14.382812 6.609375 16.921875 7.207031 17.824219 Z M 7.207031 17.824219 " fill-opacity="1" fill-rule="evenodd"/></g><g clip-path="url(#355d875319)"><path fill="#f9fafb" d="M 75.714844 4.554688 L 91.179688 4.554688 C 96.28125 4.554688 100.414062 8.667969 100.414062 13.746094 C 100.414062 15.125 100.109375 16.433594 99.5625 17.609375 L 77.628906 64.628906 C 76.105469 67.886719 72.789062 70.148438 68.941406 70.148438 C 64.726562 70.148438 61.144531 67.429688 59.871094 63.660156 L 41.058594 23.511719 C 40.246094 21.78125 39.792969 19.851562 39.792969 17.8125 C 39.792969 10.359375 45.859375 4.320312 53.347656 4.320312 C 60.832031 4.320312 66.902344 10.359375 66.902344 17.8125 C 66.902344 23.742188 63.0625 28.773438 57.726562 30.585938 L 62.101562 40.054688 L 62.953125 41.902344 C 72.574219 38.09375 79.375 28.746094 79.375 17.816406 C 79.375 12.96875 78.039062 8.433594 75.710938 4.554688 Z M 75.714844 4.554688 " fill-opacity="1" fill-rule="evenodd"/></g><g clip-path="url(#83f7db4a4e)"><path fill="#ffffff" d="M 131.996094 15.078125 C 135.746094 15.078125 139.117188 16.472656 142.132812 19.277344 C 145.019531 22.296875 146.457031 25.679688 146.457031 29.449219 C 146.457031 34.832031 143.910156 39.066406 138.804688 42.128906 C 136.5625 43.253906 134.40625 43.820312 132.328125 43.820312 L 131.519531 43.820312 C 128.15625 43.820312 125.34375 42.796875 123.089844 40.761719 L 123.089844 52.605469 C 123.089844 53.875 122.179688 54.703125 120.367188 55.097656 C 118.929688 55.097656 118.003906 54.191406 117.589844 52.394531 L 117.589844 30.324219 C 117.589844 23.105469 121.019531 18.234375 127.882812 15.714844 C 128.761719 15.433594 130.136719 15.222656 131.996094 15.078125 Z M 123.199219 29.15625 L 123.199219 29.660156 C 123.199219 32.953125 124.8125 35.515625 128.027344 37.351562 C 129.175781 37.945312 130.402344 38.234375 131.730469 38.234375 L 132.320312 38.234375 C 135.773438 38.234375 138.414062 36.457031 140.234375 32.898438 C 140.648438 31.792969 140.851562 30.71875 140.851562 29.660156 L 140.851562 29.15625 C 140.851562 26.410156 139.578125 24.09375 137.039062 22.1875 C 135.535156 21.171875 133.832031 20.664062 131.914062 20.664062 C 128.167969 20.664062 125.410156 22.644531 123.65625 26.59375 C 123.355469 27.535156 123.199219 28.390625 123.199219 29.15625 Z M 165.136719 27.140625 L 160.085938 42.667969 C 159.425781 43.546875 158.65625 43.984375 157.777344 43.984375 L 157.695312 43.984375 C 156.375 43.984375 155.449219 43.207031 154.933594 41.65625 L 147.464844 18.246094 C 147.839844 16.355469 148.785156 15.40625 150.289062 15.40625 C 151.945312 15.40625 153.054688 16.929688 153.613281 19.976562 L 157.722656 32.488281 C 161 22.148438 162.796875 16.765625 163.117188 16.347656 C 163.742188 15.808594 164.429688 15.5 165.160156 15.40625 C 166.820312 15.40625 167.894531 16.703125 168.351562 19.285156 L 172.648438 32.488281 C 175.765625 22.6875 177.496094 17.40625 177.855469 16.636719 C 178.625 15.816406 179.402344 15.40625 180.191406 15.40625 C 182.007812 15.761719 182.90625 16.730469 182.90625 18.316406 L 174.988281 42.859375 C 174.179688 43.609375 173.421875 43.984375 172.703125 43.984375 L 172.621094 43.984375 C 170.953125 43.984375 169.835938 42.503906 169.269531 39.546875 C 167.242188 33.433594 165.867188 29.300781 165.136719 27.140625 Z M 202.792969 15.460938 C 204.128906 15.460938 204.992188 16.046875 205.367188 17.222656 C 206.816406 16.046875 208.914062 15.460938 211.671875 15.460938 C 215.320312 15.460938 218.261719 16.8125 220.496094 19.519531 C 221.265625 18.097656 223.421875 16.847656 226.96875 15.78125 L 229.332031 15.460938 C 233.796875 15.460938 237.304688 17.570312 239.859375 21.773438 C 240.722656 23.546875 241.152344 25.234375 241.152344 26.859375 L 241.152344 41.519531 C 241.152344 42.824219 240.28125 43.644531 238.550781 43.984375 L 238.3125 43.984375 C 236.582031 43.683594 235.710938 42.789062 235.710938 41.308594 L 235.710938 27.066406 C 235.710938 24.210938 234.207031 22.242188 231.191406 21.15625 L 229.953125 20.992188 L 229.011719 20.992188 C 226.628906 20.992188 224.796875 22.386719 223.523438 25.167969 C 223.363281 25.753906 223.285156 26.253906 223.285156 26.664062 L 223.285156 41.308594 C 222.960938 43.089844 222.074219 43.984375 220.625 43.984375 L 220.441406 43.984375 C 218.710938 43.683594 217.839844 42.824219 217.839844 41.410156 L 217.839844 29.3125 C 217.839844 26.191406 217.453125 24.273438 216.683594 23.5625 C 215.394531 21.847656 213.753906 20.992188 211.746094 20.992188 L 211.453125 20.992188 C 208.695312 20.992188 206.75 22.46875 205.625 25.433594 C 205.449219 26.144531 205.359375 27.121094 205.359375 28.355469 L 205.359375 41.410156 C 205.359375 42.824219 204.488281 43.683594 202.757812 43.984375 L 202.597656 43.984375 C 201.152344 43.984375 200.253906 43.089844 199.914062 41.308594 L 199.914062 18.480469 C 200.117188 16.464844 201.070312 15.460938 202.792969 15.460938 Z M 253.65625 5.664062 C 255.460938 6.074219 256.367188 6.964844 256.367188 8.335938 L 256.367188 8.519531 C 256.367188 9.265625 255.589844 10.515625 254.03125 12.269531 C 252.792969 14.121094 251.566406 15.042969 250.328125 15.042969 L 250.21875 15.042969 C 248.945312 15.042969 248.128906 14.183594 247.753906 12.449219 L 247.753906 12.160156 C 247.753906 11.375 248.832031 9.769531 250.996094 7.351562 C 251.820312 6.226562 252.710938 5.664062 253.65625 5.664062 Z M 251.820312 15.460938 C 253.515625 15.910156 254.367188 16.730469 254.367188 17.925781 L 254.367188 41.417969 C 254.367188 42.824219 253.507812 43.683594 251.792969 43.984375 L 251.609375 43.984375 C 250.160156 43.984375 249.265625 43.082031 248.925781 41.28125 L 248.925781 18.453125 C 249.136719 16.457031 250.105469 15.460938 251.820312 15.460938 Z M 284.601562 4.074219 L 285.085938 4.074219 C 286.785156 4.429688 287.636719 5.242188 287.636719 6.511719 L 287.636719 26.519531 L 287.746094 29.941406 C 287.746094 32.761719 286.601562 35.691406 284.308594 38.738281 C 281.0625 42.230469 277.40625 43.984375 273.347656 43.984375 L 272.542969 43.984375 C 268.5625 43.984375 264.871094 42.140625 261.472656 38.445312 C 259.371094 35.507812 258.328125 32.460938 258.328125 29.320312 C 258.328125 24.585938 260.445312 20.597656 264.667969 17.367188 C 267.355469 15.589844 270.148438 14.695312 273.054688 14.695312 C 276.785156 14.695312 279.828125 15.746094 282.191406 17.84375 L 282.191406 8.246094 L 282.082031 6.511719 C 282.605469 4.886719 283.4375 4.074219 284.601562 4.074219 Z M 263.882812 29.027344 L 263.882812 29.539062 C 263.882812 33.328125 265.878906 36.144531 269.875 37.996094 C 270.921875 38.300781 271.863281 38.453125 272.722656 38.453125 L 273.347656 38.453125 C 277.042969 38.453125 279.835938 36.472656 281.734375 32.515625 C 282.035156 31.320312 282.191406 30.398438 282.191406 29.75 L 282.191406 29.140625 C 282.191406 25.371094 280.167969 22.550781 276.113281 20.679688 C 274.878906 20.378906 273.914062 20.222656 273.238281 20.222656 L 272.835938 20.222656 C 269.140625 20.222656 266.347656 22.175781 264.449219 26.089844 C 264.074219 27.175781 263.882812 28.152344 263.882812 29.027344 Z M 295.277344 7.960938 C 297.046875 8.410156 297.9375 9.246094 297.9375 10.46875 L 297.9375 11.0625 C 297.9375 12.46875 296.984375 13.308594 295.066406 13.574219 C 293.683594 13.574219 292.785156 12.640625 292.355469 10.773438 C 292.730469 8.902344 293.703125 7.960938 295.277344 7.960938 Z M 295.277344 14.851562 C 297.046875 15.289062 297.9375 16.128906 297.9375 17.359375 L 297.9375 41.363281 C 297.9375 42.808594 297.039062 43.683594 295.25 43.984375 L 295.09375 43.984375 C 293.628906 43.984375 292.722656 43.070312 292.382812 41.253906 L 292.382812 17.898438 C 292.59375 15.863281 293.5625 14.851562 295.277344 14.851562 Z M 306.761719 29.304688 L 306.761719 29.59375 C 306.761719 33.246094 308.601562 35.980469 312.277344 37.816406 C 313.421875 38.246094 314.449219 38.453125 315.367188 38.453125 L 316.136719 38.453125 C 319.179688 38.453125 321.691406 36.929688 323.667969 33.890625 C 324.382812 32.46875 324.742188 31.109375 324.742188 29.8125 L 324.742188 29.414062 C 324.742188 25.910156 323 23.21875 319.519531 21.355469 C 318.316406 20.816406 317.070312 20.554688 315.769531 20.554688 L 315.660156 20.554688 C 311.957031 20.554688 309.171875 22.476562 307.300781 26.320312 C 306.945312 27.488281 306.761719 28.484375 306.761719 29.304688 Z M 324.742188 40.925781 C 322.558594 42.960938 319.683594 43.984375 316.109375 43.984375 L 315.328125 43.984375 C 310.398438 43.984375 306.292969 41.519531 303.003906 36.601562 C 301.804688 34.210938 301.207031 31.820312 301.207031 29.414062 C 301.207031 24.03125 303.855469 19.757812 309.152344 16.601562 C 311.417969 15.554688 313.617188 15.023438 315.769531 15.023438 C 321.257812 15.023438 325.613281 17.699219 328.820312 23.042969 C 329.800781 25.242188 330.292969 27.496094 330.292969 29.8125 L 330.292969 41.394531 C 330.292969 42.816406 329.414062 43.683594 327.65625 43.984375 L 327.464844 43.984375 C 326.242188 43.984375 325.335938 43.273438 324.742188 41.839844 Z M 324.742188 40.925781 " fill-opacity="1" fill-rule="nonzero"/></g><g clip-path="url(#b4ce465487)"><path fill="#ffffff" d="M 141.140625 58.636719 L 143.164062 58.636719 C 144.054688 58.636719 144.617188 59.003906 144.84375 59.742188 C 144.992188 60.203125 145.0625 60.746094 145.0625 61.363281 C 145.0625 61.980469 145.042969 62.449219 145.007812 62.757812 C 144.933594 63.441406 144.753906 63.941406 144.464844 64.253906 C 144.179688 64.566406 143.746094 64.722656 143.164062 64.722656 L 142.320312 64.722656 L 142.320312 68.65625 L 141.140625 68.65625 Z M 143.878906 61.464844 C 143.878906 60.777344 143.824219 60.292969 143.714844 60.003906 C 143.605469 59.714844 143.390625 59.570312 143.074219 59.570312 L 142.324219 59.570312 L 142.324219 63.742188 L 143.042969 63.742188 C 143.378906 63.742188 143.601562 63.59375 143.710938 63.304688 C 143.824219 63.011719 143.878906 62.460938 143.878906 61.660156 Z M 148.378906 58.636719 L 150.488281 58.636719 C 151.085938 58.636719 151.515625 58.761719 151.78125 59.007812 C 152.042969 59.253906 152.199219 59.671875 152.253906 60.265625 C 152.277344 60.507812 152.289062 60.886719 152.289062 61.398438 C 152.289062 61.914062 152.21875 62.347656 152.085938 62.695312 C 151.949219 63.042969 151.710938 63.269531 151.367188 63.371094 C 151.617188 63.414062 151.8125 63.546875 151.9375 63.769531 C 152.070312 63.988281 152.160156 64.34375 152.214844 64.828125 C 152.265625 65.3125 152.292969 66.03125 152.292969 66.984375 C 152.292969 67.9375 152.324219 68.496094 152.386719 68.65625 L 151.207031 68.65625 C 151.148438 68.53125 151.117188 67.40625 151.117188 65.28125 C 151.117188 64.5625 151.046875 64.144531 150.90625 64.03125 C 150.765625 63.914062 150.550781 63.855469 150.265625 63.855469 L 149.558594 63.816406 L 149.558594 68.65625 L 148.378906 68.65625 Z M 151.117188 61.089844 C 151.117188 60.320312 151.046875 59.875 150.90625 59.753906 C 150.769531 59.628906 150.566406 59.570312 150.304688 59.570312 L 149.558594 59.570312 L 149.558594 62.949219 L 150.316406 62.949219 C 150.542969 62.949219 150.710938 62.90625 150.820312 62.820312 C 150.925781 62.734375 151.003906 62.566406 151.046875 62.320312 C 151.09375 62.074219 151.117188 61.683594 151.117188 61.160156 Z M 155.863281 61.359375 C 155.863281 60.21875 156.070312 59.4375 156.480469 59.011719 C 156.804688 58.679688 157.273438 58.511719 157.890625 58.511719 C 158.792969 58.511719 159.367188 58.878906 159.617188 59.617188 C 159.765625 60.050781 159.839844 60.632812 159.839844 61.359375 L 159.839844 65.777344 C 159.839844 66.820312 159.695312 67.578125 159.402344 68.054688 C 159.109375 68.53125 158.59375 68.769531 157.859375 68.769531 C 157.128906 68.769531 156.613281 68.53125 156.3125 68.050781 C 156.011719 67.574219 155.863281 66.816406 155.863281 65.777344 Z M 158.65625 61.289062 C 158.65625 60.648438 158.605469 60.195312 158.503906 59.925781 C 158.398438 59.660156 158.195312 59.527344 157.878906 59.527344 C 157.566406 59.527344 157.351562 59.660156 157.230469 59.933594 C 157.105469 60.207031 157.046875 60.65625 157.046875 61.285156 L 157.046875 65.785156 C 157.046875 66.546875 157.097656 67.066406 157.207031 67.34375 C 157.3125 67.617188 157.527344 67.753906 157.851562 67.753906 C 158.175781 67.753906 158.390625 67.613281 158.496094 67.335938 C 158.605469 67.058594 158.65625 66.539062 158.65625 65.785156 Z M 163.410156 61.527344 C 163.410156 60.769531 163.472656 60.210938 163.597656 59.855469 C 163.722656 59.5 163.863281 59.234375 164.011719 59.070312 C 164.335938 58.707031 164.808594 58.519531 165.429688 58.515625 C 166.296875 58.519531 166.859375 58.902344 167.109375 59.660156 C 167.253906 60.097656 167.324219 60.679688 167.324219 61.402344 L 167.324219 62.511719 L 166.164062 62.511719 L 166.164062 61.398438 C 166.164062 60.757812 166.128906 60.320312 166.058594 60.097656 C 165.988281 59.871094 165.90625 59.722656 165.804688 59.648438 C 165.707031 59.574219 165.582031 59.535156 165.429688 59.535156 C 165.113281 59.535156 164.894531 59.683594 164.773438 59.984375 C 164.65625 60.28125 164.59375 60.75 164.59375 61.390625 L 164.59375 65.730469 C 164.59375 66.488281 164.648438 67.019531 164.757812 67.320312 C 164.867188 67.621094 165.074219 67.773438 165.386719 67.773438 C 165.699219 67.773438 165.90625 67.621094 166.011719 67.316406 C 166.117188 67.011719 166.167969 66.480469 166.167969 65.722656 L 166.167969 64.613281 L 167.339844 64.613281 L 167.339844 65.710938 C 167.339844 66.761719 167.195312 67.535156 166.90625 68.03125 C 166.621094 68.527344 166.117188 68.773438 165.402344 68.773438 C 164.6875 68.773438 164.175781 68.519531 163.871094 68.007812 C 163.5625 67.5 163.410156 66.730469 163.410156 65.699219 Z M 170.921875 58.636719 L 173.929688 58.636719 L 173.929688 59.617188 L 172.105469 59.617188 L 172.105469 63.042969 L 173.832031 63.042969 L 173.832031 64.019531 L 172.105469 64.019531 L 172.105469 67.675781 L 173.953125 67.675781 L 173.953125 68.65625 L 170.921875 68.65625 Z M 177.367188 61.738281 C 177.296875 61.5 177.265625 61.214844 177.265625 60.878906 C 177.265625 60.15625 177.398438 59.582031 177.667969 59.152344 C 177.933594 58.726562 178.449219 58.511719 179.207031 58.511719 C 180.183594 58.511719 180.757812 58.976562 180.933594 59.914062 C 181.007812 60.3125 181.046875 60.820312 181.046875 61.429688 L 181.046875 62.023438 L 179.917969 62.023438 L 179.917969 61.351562 C 179.917969 60.714844 179.882812 60.285156 179.820312 60.066406 C 179.753906 59.847656 179.675781 59.699219 179.578125 59.628906 C 179.484375 59.554688 179.359375 59.519531 179.207031 59.519531 C 178.921875 59.519531 178.71875 59.625 178.589844 59.832031 C 178.464844 60.039062 178.402344 60.351562 178.402344 60.757812 C 178.402344 61.167969 178.460938 61.46875 178.574219 61.660156 C 178.6875 61.851562 178.828125 62.03125 178.996094 62.203125 C 179.164062 62.375 179.257812 62.472656 179.277344 62.496094 L 179.960938 63.21875 C 180.785156 64.078125 181.195312 65.039062 181.195312 66.101562 C 181.195312 66.964844 181.0625 67.625 180.792969 68.082031 C 180.523438 68.539062 180.015625 68.769531 179.257812 68.769531 C 178.347656 68.769531 177.769531 68.367188 177.527344 67.570312 C 177.386719 67.125 177.316406 66.539062 177.316406 65.8125 C 177.316406 65.792969 177.316406 65.777344 177.316406 65.757812 L 177.316406 64.785156 L 178.464844 64.785156 L 178.464844 65.800781 C 178.464844 66.535156 178.515625 67.042969 178.625 67.332031 C 178.730469 67.617188 178.929688 67.761719 179.21875 67.761719 C 179.507812 67.761719 179.707031 67.691406 179.820312 67.558594 C 179.929688 67.425781 179.996094 67.21875 180.011719 66.941406 C 180.027344 66.664062 180.035156 66.351562 180.035156 66.007812 C 180.035156 65.3125 179.730469 64.660156 179.117188 64.050781 L 178.460938 63.394531 C 177.871094 62.792969 177.507812 62.242188 177.367188 61.738281 Z M 184.503906 61.738281 C 184.433594 61.5 184.402344 61.214844 184.402344 60.878906 C 184.402344 60.15625 184.535156 59.582031 184.804688 59.152344 C 185.070312 58.726562 185.585938 58.511719 186.34375 58.511719 C 187.320312 58.511719 187.894531 58.976562 188.070312 59.914062 C 188.144531 60.3125 188.183594 60.820312 188.183594 61.429688 L 188.183594 62.023438 L 187.054688 62.023438 L 187.054688 61.351562 C 187.054688 60.714844 187.019531 60.285156 186.957031 60.066406 C 186.890625 59.847656 186.8125 59.699219 186.714844 59.628906 C 186.621094 59.554688 186.496094 59.519531 186.34375 59.519531 C 186.058594 59.519531 185.851562 59.625 185.726562 59.832031 C 185.601562 60.039062 185.539062 60.351562 185.539062 60.757812 C 185.539062 61.167969 185.59375 61.46875 185.707031 61.660156 C 185.824219 61.851562 185.964844 62.03125 186.132812 62.203125 C 186.300781 62.375 186.394531 62.472656 186.414062 62.496094 L 187.097656 63.21875 C 187.921875 64.078125 188.332031 65.039062 188.332031 66.101562 C 188.332031 66.964844 188.199219 67.625 187.929688 68.082031 C 187.660156 68.539062 187.152344 68.769531 186.394531 68.769531 C 185.484375 68.769531 184.90625 68.367188 184.664062 67.570312 C 184.523438 67.125 184.453125 66.539062 184.453125 65.8125 C 184.453125 65.792969 184.453125 65.777344 184.453125 65.757812 L 184.453125 64.785156 L 185.601562 64.785156 L 185.601562 65.800781 C 185.601562 66.535156 185.652344 67.042969 185.761719 67.332031 C 185.867188 67.617188 186.066406 67.761719 186.355469 67.761719 C 186.644531 67.761719 186.84375 67.691406 186.957031 67.558594 C 187.066406 67.425781 187.132812 67.21875 187.148438 66.941406 C 187.164062 66.664062 187.171875 66.351562 187.171875 66.007812 C 187.171875 65.3125 186.867188 64.660156 186.253906 64.050781 L 185.597656 63.394531 C 185.007812 62.792969 184.644531 62.242188 184.503906 61.738281 Z M 191.640625 61.359375 C 191.640625 60.21875 191.847656 59.4375 192.257812 59.011719 C 192.582031 58.679688 193.050781 58.511719 193.667969 58.511719 C 194.570312 58.511719 195.144531 58.878906 195.394531 59.617188 C 195.542969 60.050781 195.617188 60.632812 195.617188 61.359375 L 195.617188 65.777344 C 195.617188 66.820312 195.472656 67.578125 195.179688 68.054688 C 194.886719 68.53125 194.371094 68.769531 193.636719 68.769531 C 192.90625 68.769531 192.390625 68.53125 192.089844 68.050781 C 191.789062 67.574219 191.640625 66.816406 191.640625 65.777344 Z M 194.433594 61.289062 C 194.433594 60.648438 194.382812 60.195312 194.28125 59.925781 C 194.175781 59.660156 193.972656 59.527344 193.65625 59.527344 C 193.34375 59.527344 193.128906 59.660156 193.007812 59.933594 C 192.882812 60.207031 192.824219 60.65625 192.824219 61.285156 L 192.824219 65.785156 C 192.824219 66.546875 192.875 67.066406 192.984375 67.34375 C 193.089844 67.617188 193.304688 67.753906 193.628906 67.753906 C 193.953125 67.753906 194.167969 67.613281 194.273438 67.335938 C 194.382812 67.058594 194.433594 66.539062 194.433594 65.785156 Z M 199.1875 61.738281 C 199.117188 61.5 199.085938 61.214844 199.085938 60.878906 C 199.085938 60.15625 199.21875 59.582031 199.488281 59.152344 C 199.757812 58.726562 200.269531 58.511719 201.027344 58.511719 C 202.003906 58.511719 202.578125 58.976562 202.753906 59.914062 C 202.828125 60.3125 202.867188 60.820312 202.867188 61.429688 L 202.867188 62.023438 L 201.738281 62.023438 L 201.738281 61.351562 C 201.738281 60.714844 201.703125 60.285156 201.640625 60.066406 C 201.574219 59.847656 201.496094 59.699219 201.398438 59.628906 C 201.304688 59.554688 201.179688 59.519531 201.027344 59.519531 C 200.742188 59.519531 200.539062 59.625 200.410156 59.832031 C 200.285156 60.039062 200.222656 60.351562 200.222656 60.757812 C 200.222656 61.167969 200.28125 61.46875 200.394531 61.660156 C 200.507812 61.851562 200.648438 62.03125 200.816406 62.203125 C 200.984375 62.375 201.078125 62.472656 201.097656 62.496094 L 201.78125 63.21875 C 202.605469 64.078125 203.015625 65.039062 203.015625 66.101562 C 203.015625 66.964844 202.882812 67.625 202.613281 68.082031 C 202.347656 68.539062 201.835938 68.769531 201.078125 68.769531 C 200.167969 68.769531 199.589844 68.367188 199.347656 67.570312 C 199.207031 67.125 199.136719 66.539062 199.136719 65.8125 C 199.136719 65.792969 199.136719 65.777344 199.136719 65.757812 L 199.136719 64.785156 L 200.285156 64.785156 L 200.285156 65.800781 C 200.285156 66.535156 200.335938 67.042969 200.445312 67.332031 C 200.550781 67.617188 200.75 67.761719 201.039062 67.761719 C 201.328125 67.761719 201.527344 67.691406 201.640625 67.558594 C 201.75 67.425781 201.816406 67.21875 201.832031 66.941406 C 201.847656 66.664062 201.855469 66.351562 201.855469 66.007812 C 201.855469 65.3125 201.550781 64.660156 200.9375 64.050781 L 200.28125 63.394531 C 199.691406 62.792969 199.328125 62.242188 199.1875 61.738281 Z M 206.296875 67.316406 L 207.769531 67.316406 L 207.769531 68.605469 L 207.195312 70.613281 L 206.585938 70.613281 L 207.003906 68.65625 L 206.296875 68.65625 Z M 213.445312 58.636719 L 216.765625 58.636719 L 216.765625 59.617188 L 215.730469 59.617188 L 215.730469 68.65625 L 214.550781 68.65625 L 214.550781 59.617188 L 213.445312 59.617188 Z M 219.898438 58.636719 L 222.007812 58.636719 C 222.609375 58.636719 223.039062 58.761719 223.300781 59.007812 C 223.5625 59.253906 223.722656 59.671875 223.773438 60.265625 C 223.796875 60.507812 223.808594 60.886719 223.808594 61.398438 C 223.808594 61.914062 223.742188 62.347656 223.605469 62.695312 C 223.46875 63.042969 223.234375 63.269531 222.890625 63.371094 C 223.140625 63.414062 223.332031 63.546875 223.460938 63.769531 C 223.589844 63.988281 223.679688 64.34375 223.738281 64.828125 C 223.789062 65.3125 223.816406 66.03125 223.816406 66.984375 C 223.816406 67.9375 223.84375 68.496094 223.910156 68.652344 L 222.730469 68.652344 C 222.667969 68.53125 222.636719 67.40625 222.636719 65.28125 C 222.636719 64.5625 222.566406 64.144531 222.425781 64.03125 C 222.285156 63.914062 222.070312 63.855469 221.785156 63.855469 L 221.082031 63.816406 L 221.082031 68.652344 L 219.898438 68.652344 Z M 222.636719 61.089844 C 222.636719 60.320312 222.570312 59.871094 222.429688 59.753906 C 222.289062 59.628906 222.089844 59.570312 221.824219 59.570312 L 221.082031 59.570312 L 221.082031 62.949219 L 221.835938 62.949219 C 222.066406 62.949219 222.234375 62.90625 222.339844 62.820312 C 222.449219 62.730469 222.523438 62.566406 222.570312 62.316406 C 222.617188 62.070312 222.636719 61.683594 222.636719 61.160156 Z M 228.21875 57.234375 L 230.613281 56.246094 L 230.613281 57.378906 L 228.21875 57.867188 Z M 228.578125 58.636719 L 230.003906 58.636719 L 231.667969 68.652344 L 230.550781 68.652344 L 230.265625 66.742188 L 228.441406 66.742188 L 228.179688 68.652344 L 227.054688 68.652344 L 228.582031 58.636719 Z M 228.574219 65.785156 L 230.117188 65.785156 L 229.320312 60.492188 L 229.304688 60.492188 Z M 235.011719 58.636719 L 238.042969 58.636719 L 238.042969 59.621094 L 236.1875 59.621094 L 236.1875 62.785156 L 237.925781 62.785156 L 237.925781 63.78125 L 236.1875 63.78125 L 236.1875 68.65625 L 235.011719 68.65625 Z M 241.433594 58.636719 L 244.441406 58.636719 L 244.441406 59.617188 L 242.617188 59.617188 L 242.617188 63.042969 L 244.34375 63.042969 L 244.34375 64.019531 L 242.617188 64.019531 L 242.617188 67.675781 L 244.464844 67.675781 L 244.464844 68.65625 L 241.433594 68.65625 Z M 247.878906 61.472656 C 247.878906 60 248.230469 59.085938 248.929688 58.730469 C 249.203125 58.589844 249.503906 58.519531 249.832031 58.515625 C 250.449219 58.515625 250.890625 58.648438 251.164062 58.90625 C 251.441406 59.167969 251.617188 59.507812 251.695312 59.9375 C 251.777344 60.363281 251.816406 60.882812 251.816406 61.492188 L 251.816406 62.265625 L 250.675781 62.265625 L 250.675781 60.964844 C 250.675781 60.453125 250.621094 60.085938 250.515625 59.867188 C 250.414062 59.644531 250.207031 59.535156 249.898438 59.535156 C 249.59375 59.535156 249.375 59.675781 249.25 59.949219 C 249.125 60.226562 249.0625 60.71875 249.0625 61.417969 L 249.0625 65.632812 C 249.0625 66.433594 249.117188 66.988281 249.230469 67.300781 C 249.339844 67.613281 249.554688 67.773438 249.882812 67.773438 C 250.207031 67.773438 250.429688 67.609375 250.550781 67.289062 C 250.671875 66.964844 250.730469 66.40625 250.730469 65.609375 L 250.730469 64.304688 L 249.914062 64.304688 L 249.914062 63.394531 L 251.816406 63.394531 L 251.816406 68.652344 L 251.195312 68.652344 L 251.035156 67.882812 C 250.808594 68.460938 250.378906 68.75 249.746094 68.75 C 249.109375 68.75 248.640625 68.503906 248.335938 68.011719 C 248.03125 67.523438 247.878906 66.742188 247.878906 65.671875 Z M 255.414062 61.355469 C 255.414062 60.21875 255.621094 59.4375 256.03125 59.011719 C 256.355469 58.679688 256.828125 58.511719 257.445312 58.511719 C 258.34375 58.511719 258.917969 58.878906 259.171875 59.617188 C 259.320312 60.050781 259.394531 60.632812 259.394531 61.355469 L 259.394531 65.773438 C 259.394531 66.820312 259.246094 67.578125 258.953125 68.054688 C 258.660156 68.53125 258.144531 68.769531 257.414062 68.769531 C 256.679688 68.769531 256.164062 68.53125 255.863281 68.050781 C 255.566406 67.570312 255.414062 66.816406 255.414062 65.773438 Z M 258.210938 61.289062 C 258.210938 60.648438 258.160156 60.195312 258.054688 59.925781 C 257.953125 59.660156 257.746094 59.523438 257.429688 59.523438 C 257.117188 59.523438 256.902344 59.660156 256.78125 59.933594 C 256.65625 60.207031 256.597656 60.65625 256.597656 61.28125 L 256.597656 65.785156 C 256.597656 66.546875 256.652344 67.066406 256.757812 67.34375 C 256.863281 67.617188 257.078125 67.753906 257.402344 67.753906 C 257.726562 67.753906 257.941406 67.613281 258.050781 67.335938 C 258.15625 67.058594 258.210938 66.539062 258.210938 65.785156 Z M 265.953125 58.636719 L 268.960938 58.636719 L 268.960938 59.617188 L 267.136719 59.617188 L 267.136719 63.042969 L 268.863281 63.042969 L 268.863281 64.019531 L 267.136719 64.019531 L 267.136719 67.675781 L 268.984375 67.675781 L 268.984375 68.652344 L 265.953125 68.652344 Z M 278.371094 58.636719 L 279.484375 58.636719 L 277.960938 68.652344 L 276.582031 68.652344 L 274.90625 58.636719 L 276.035156 58.636719 L 276.703125 62.875 L 277.273438 66.605469 L 277.296875 66.605469 L 277.792969 62.875 Z M 282.804688 58.636719 L 285.8125 58.636719 L 285.8125 59.617188 L 283.984375 59.617188 L 283.984375 63.042969 L 285.714844 63.042969 L 285.714844 64.019531 L 283.984375 64.019531 L 283.984375 67.675781 L 285.835938 67.675781 L 285.835938 68.652344 L 282.804688 68.652344 Z M 292.464844 58.636719 L 293.511719 58.636719 L 293.511719 68.652344 L 292.644531 68.652344 L 290.386719 61.777344 L 290.453125 64.304688 L 290.453125 68.652344 L 289.363281 68.652344 L 289.363281 58.636719 L 290.253906 58.636719 L 292.585938 65.453125 L 292.46875 62.558594 L 292.46875 58.636719 Z M 297.304688 58.636719 L 299.199219 58.636719 C 299.964844 58.636719 300.496094 58.871094 300.785156 59.34375 C 301.078125 59.816406 301.222656 60.488281 301.222656 61.355469 L 301.226562 65.757812 C 301.226562 66.785156 301.070312 67.523438 300.753906 67.976562 C 300.433594 68.429688 299.902344 68.652344 299.15625 68.652344 L 297.304688 68.652344 Z M 300.042969 61.328125 C 300.042969 60.703125 299.96875 60.253906 299.820312 59.980469 C 299.671875 59.707031 299.429688 59.570312 299.089844 59.570312 L 298.480469 59.570312 L 298.480469 67.703125 L 299.089844 67.703125 C 299.316406 67.703125 299.496094 67.65625 299.625 67.566406 C 299.902344 67.371094 300.042969 66.828125 300.042969 65.941406 Z M 305.910156 58.636719 L 307.332031 58.636719 L 308.996094 68.652344 L 307.882812 68.652344 L 307.597656 66.742188 L 305.773438 66.742188 L 305.511719 68.652344 L 304.382812 68.652344 Z M 305.90625 65.785156 L 307.449219 65.785156 L 306.652344 60.492188 L 306.636719 60.492188 Z M 312.234375 61.738281 C 312.164062 61.5 312.132812 61.214844 312.132812 60.878906 C 312.132812 60.15625 312.265625 59.578125 312.535156 59.152344 C 312.800781 58.722656 313.316406 58.511719 314.074219 58.511719 C 315.050781 58.511719 315.625 58.976562 315.800781 59.910156 C 315.875 60.3125 315.914062 60.820312 315.914062 61.429688 L 315.914062 62.023438 L 314.785156 62.023438 L 314.785156 61.351562 C 314.785156 60.714844 314.75 60.285156 314.6875 60.066406 C 314.621094 59.847656 314.542969 59.699219 314.445312 59.628906 C 314.351562 59.554688 314.226562 59.519531 314.074219 59.519531 C 313.789062 59.519531 313.582031 59.625 313.457031 59.832031 C 313.332031 60.039062 313.269531 60.351562 313.269531 60.757812 C 313.269531 61.167969 313.324219 61.46875 313.4375 61.660156 C 313.554688 61.847656 313.695312 62.03125 313.863281 62.203125 C 314.03125 62.375 314.125 62.472656 314.144531 62.496094 L 314.828125 63.21875 C 315.652344 64.078125 316.0625 65.035156 316.0625 66.097656 C 316.0625 66.964844 315.929688 67.625 315.660156 68.082031 C 315.390625 68.539062 314.878906 68.769531 314.125 68.769531 C 313.214844 68.769531 312.636719 68.367188 312.394531 67.570312 C 312.253906 67.125 312.183594 66.539062 312.183594 65.8125 C 312.183594 65.792969 312.183594 65.777344 312.183594 65.757812 L 312.183594 64.785156 L 313.332031 64.785156 L 313.332031 65.800781 C 313.332031 66.535156 313.382812 67.042969 313.492188 67.332031 C 313.597656 67.617188 313.796875 67.757812 314.085938 67.757812 C 314.375 67.757812 314.574219 67.691406 314.6875 67.558594 C 314.796875 67.421875 314.863281 67.21875 314.878906 66.941406 C 314.894531 66.664062 314.902344 66.351562 314.902344 66.007812 C 314.902344 65.3125 314.597656 64.660156 313.984375 64.050781 L 313.328125 63.394531 C 312.738281 62.792969 312.375 62.242188 312.234375 61.738281 Z M 312.234375 61.738281 " fill-opacity="1" fill-rule="nonzero"/></g></svg>