<svg xmlns="http://www.w3.org/2000/svg" xmlns:xlink="http://www.w3.org/1999/xlink" width="500" zoomAndPan="magnify" viewBox="0 0 375 374.999991" height="500" preserveAspectRatio="xMidYMid meet" version="1.0"><path fill="#f4fbf8" d="M 235.179688 72.328125 C 221.949219 80.105469 219.308594 81.757812 219.484375 82.144531 C 219.554688 82.320312 221.175781 83.167969 223.074219 84.046875 C 226.136719 85.417969 226.558594 85.734375 226.382812 86.367188 C 226.207031 87.109375 220.824219 99.105469 213.398438 115.152344 C 211.359375 119.585938 209.246094 123.703125 208.71875 124.265625 C 205.902344 127.257812 200.484375 127.328125 198.195312 124.40625 C 197.808594 123.914062 196.085938 120.464844 194.363281 116.734375 L 191.230469 109.980469 L 192.074219 109.417969 C 194.257812 107.972656 196.578125 105.828125 197.808594 104.105469 C 204.425781 94.636719 198.019531 81.933594 186.65625 81.933594 C 185.246094 81.933594 183.3125 82.179688 182.363281 82.460938 C 178.351562 83.660156 174.761719 87.355469 173.425781 91.71875 C 172.085938 96.011719 172.617188 99.070312 175.746094 105.722656 C 176.839844 108.007812 181.589844 118.214844 186.339844 128.382812 C 198.054688 153.507812 197.808594 153.015625 199.464844 154.703125 C 200.273438 155.515625 201.820312 156.605469 202.914062 157.132812 C 204.636719 157.976562 205.339844 158.117188 207.910156 158.117188 C 210.441406 158.117188 211.183594 157.976562 212.660156 157.167969 C 215.96875 155.445312 217.621094 153.121094 220.507812 146.328125 C 221.28125 144.5 223.671875 138.941406 225.855469 134.015625 C 228.035156 129.085938 232.894531 117.933594 236.65625 109.207031 C 240.421875 100.515625 243.554688 93.335938 243.589844 93.265625 C 243.660156 93.195312 245.171875 93.898438 246.96875 94.777344 C 250.417969 96.503906 251.402344 96.609375 251.050781 95.128906 C 250.945312 94.671875 250.03125 88.128906 249.078125 80.632812 C 248.09375 73.136719 247.214844 66.769531 247.144531 66.523438 C 247.074219 66.3125 246.6875 66.101562 246.335938 66.101562 C 245.984375 66.101562 240.949219 68.878906 235.179688 72.328125 Z M 235.179688 72.328125 " fill-opacity="1" fill-rule="nonzero"/><path fill="#f4fbf8" d="M 145.238281 81.933594 C 141.613281 82.570312 138.199219 85.207031 136.617188 88.726562 C 135.773438 90.554688 135.632812 91.367188 135.597656 93.898438 C 135.597656 97.628906 135.914062 98.613281 140.417969 108.328125 C 146.539062 121.523438 150.445312 129.933594 153.929688 137.425781 C 161.988281 154.808594 162.128906 155.054688 166.105469 157.132812 C 167.722656 157.976562 168.359375 158.117188 171.136719 158.117188 C 173.8125 158.117188 174.550781 157.976562 176.027344 157.238281 C 178.105469 156.183594 180.8125 153.578125 181.625 151.855469 C 182.222656 150.65625 182.1875 150.515625 181.519531 148.757812 C 180.636719 146.574219 171.804688 127.222656 164.453125 111.492188 C 161.636719 105.40625 158.996094 99.457031 158.574219 98.296875 C 156.921875 93.335938 157.484375 87.566406 160.054688 83.90625 C 161.355469 82.074219 161.355469 82.003906 160.652344 81.792969 C 159.523438 81.511719 147.140625 81.617188 145.238281 81.933594 Z M 145.238281 81.933594 " fill-opacity="1" fill-rule="nonzero"/><path fill="#f4fbf8" d="M 260.164062 178.351562 C 258.863281 178.878906 257.488281 180.671875 257.277344 182.117188 C 256.785156 185.882812 260.304688 188.554688 263.683594 186.9375 C 265.40625 186.128906 266.320312 184.578125 266.320312 182.539062 C 266.320312 179.335938 263.050781 177.121094 260.164062 178.351562 Z M 260.164062 178.351562 " fill-opacity="1" fill-rule="nonzero"/><path fill="#f4fbf8" d="M 185.8125 180.25 C 185.351562 180.496094 183.910156 182.257812 182.574219 184.15625 C 180.671875 186.832031 180.214844 187.710938 180.496094 188.097656 C 181.023438 188.695312 186.09375 188.730469 186.867188 188.097656 C 187.921875 187.289062 191.019531 183.171875 191.019531 182.609375 C 191.019531 181.589844 189.964844 180.496094 188.625 180.109375 C 187.007812 179.6875 186.796875 179.6875 185.8125 180.25 Z M 185.8125 180.25 " fill-opacity="1" fill-rule="nonzero"/><path fill="#f4fbf8" d="M 208.4375 181.34375 C 207.59375 182.152344 207.558594 182.328125 207.558594 187.5 L 207.558594 192.777344 L 205.234375 192.777344 C 203.160156 192.777344 202.84375 192.882812 201.890625 193.796875 C 200.730469 194.960938 200.554688 196.4375 201.398438 198.019531 C 202.03125 199.289062 202.527344 199.464844 205.269531 199.464844 L 207.523438 199.464844 L 207.628906 208.859375 C 207.734375 217.9375 207.769531 218.359375 208.578125 220.15625 C 210.757812 225.011719 216.601562 227.472656 222.757812 226.171875 C 226.3125 225.398438 227.964844 222.546875 226.066406 220.332031 L 225.222656 219.378906 L 222.40625 219.769531 C 218.21875 220.402344 216.144531 219.589844 214.910156 216.953125 C 214.347656 215.652344 214.242188 214.558594 214.242188 207.453125 L 214.242188 199.464844 L 218.640625 199.464844 C 222.863281 199.464844 223.109375 199.429688 223.921875 198.585938 C 225.1875 197.351562 225.152344 195.171875 223.8125 193.832031 C 222.828125 192.882812 222.757812 192.847656 219.804688 193.023438 C 218.148438 193.128906 216.214844 193.128906 215.511719 192.988281 L 214.242188 192.742188 L 214.242188 187.464844 C 214.242188 182.328125 214.207031 182.152344 213.363281 181.34375 C 212.730469 180.671875 212.132812 180.460938 210.898438 180.460938 C 209.667969 180.460938 209.070312 180.671875 208.4375 181.34375 Z M 208.4375 181.34375 " fill-opacity="1" fill-rule="nonzero"/><path fill="#f4fbf8" d="M 24.964844 192.988281 C 19.511719 194.46875 15.148438 198.550781 13.351562 203.933594 C 12.648438 206.007812 12.613281 206.855469 12.613281 221.808594 L 12.613281 237.539062 L 13.632812 238.558594 C 15.007812 239.929688 17.152344 240 18.421875 238.699219 C 19.300781 237.855469 19.300781 237.785156 19.335938 230.710938 C 19.371094 226.769531 19.371094 223.355469 19.335938 223.109375 C 19.230469 222.441406 19.933594 222.617188 21.199219 223.566406 C 29.292969 229.726562 41.960938 225.679688 45.585938 215.792969 C 49.773438 204.179688 41.539062 192.320312 29.328125 192.460938 C 27.992188 192.460938 26.019531 192.707031 24.964844 192.988281 Z M 33.9375 200.097656 C 34.746094 200.484375 36.121094 201.644531 37.035156 202.667969 C 39.074219 204.953125 39.851562 207.382812 39.636719 210.757812 C 39.003906 219.308594 29.046875 223.214844 22.679688 217.375 C 20.109375 215.015625 19.160156 212.660156 19.371094 209.070312 C 19.652344 204.671875 22.148438 201.011719 25.773438 199.675781 C 27.816406 198.902344 32.074219 199.113281 33.9375 200.097656 Z M 33.9375 200.097656 " fill-opacity="1" fill-rule="nonzero"/><path fill="#f4fbf8" d="M 126.378906 192.742188 C 125.074219 193.09375 122.367188 194.609375 121.699219 195.382812 C 121.097656 196.15625 120.640625 196.085938 120.640625 195.277344 C 120.640625 194.257812 118.671875 192.777344 117.300781 192.777344 C 116.558594 192.777344 115.714844 193.09375 115.046875 193.691406 L 113.957031 194.609375 L 113.957031 209 C 113.957031 224.378906 114.027344 224.941406 115.679688 225.855469 C 116.558594 226.3125 118.390625 226.3125 119.269531 225.855469 C 120.851562 225.011719 120.992188 223.992188 120.992188 214.136719 C 120.992188 204.179688 121.136719 203.160156 122.859375 201.292969 C 124.757812 199.253906 128.277344 198.515625 130.601562 199.675781 C 132.21875 200.484375 132.921875 201.1875 133.800781 202.808594 C 134.507812 204.144531 134.542969 204.847656 134.71875 214.347656 L 134.894531 224.519531 L 135.878906 225.363281 C 137.320312 226.59375 139.363281 226.523438 140.734375 225.1875 L 141.753906 224.167969 L 141.753906 214.875 C 141.753906 209.773438 141.929688 205.058594 142.105469 204.355469 C 142.988281 201.1875 145.660156 199.113281 148.828125 199.113281 C 150.902344 199.113281 152.207031 199.570312 153.472656 200.800781 C 155.621094 202.808594 155.65625 202.949219 155.832031 214.171875 L 156.007812 224.519531 L 156.992188 225.363281 C 158.046875 226.277344 159.914062 226.488281 161.144531 225.855469 C 162.726562 225.011719 162.867188 223.992188 162.867188 214.136719 C 162.867188 209.035156 162.691406 203.96875 162.515625 202.949219 C 161.742188 198.796875 159.03125 195.171875 155.515625 193.550781 C 153.789062 192.742188 153.050781 192.636719 149.847656 192.636719 C 145.449219 192.601562 143.585938 193.269531 141.015625 195.839844 L 139.363281 197.421875 L 138.058594 195.980469 C 136.125 193.867188 133.589844 192.742188 130.25 192.566406 C 128.734375 192.496094 127.011719 192.566406 126.378906 192.742188 Z M 126.378906 192.742188 " fill-opacity="1" fill-rule="nonzero"/><path fill="#f4fbf8" d="M 179.863281 192.953125 C 176.765625 193.621094 174.410156 195.03125 172.15625 197.457031 C 168.179688 201.714844 166.738281 206.996094 167.828125 213.046875 C 168.78125 218.359375 172.15625 222.6875 177.296875 225.117188 C 179.582031 226.207031 180.320312 226.382812 183.242188 226.488281 C 187.148438 226.664062 189.644531 226.207031 192.707031 224.730469 C 197 222.617188 198.445312 219.839844 196.332031 217.726562 C 195.03125 216.460938 193.691406 216.390625 191.933594 217.585938 C 188.800781 219.699219 187.816406 220.050781 184.683594 220.050781 C 181.519531 220.050781 180.003906 219.519531 177.789062 217.65625 C 176.804688 216.8125 175.535156 214.664062 175.007812 212.90625 L 174.796875 212.132812 L 186.339844 212.132812 C 195.804688 212.132812 198.054688 212.027344 198.621094 211.640625 C 199.183594 211.21875 199.289062 210.6875 199.289062 208.015625 C 199.289062 205.9375 199.042969 204.25 198.621094 202.878906 C 197.28125 198.796875 193.65625 194.960938 189.753906 193.480469 C 187.113281 192.496094 182.785156 192.25 179.863281 192.953125 Z M 187.042969 199.289062 C 189.152344 200.167969 190.632812 201.503906 191.546875 203.335938 C 193.234375 206.675781 193.65625 206.5 183.804688 206.5 C 173.953125 206.5 174.445312 206.710938 176.097656 203.40625 C 177.578125 200.414062 180.285156 198.796875 183.910156 198.761719 C 184.929688 198.761719 186.339844 199.007812 187.042969 199.289062 Z M 187.042969 199.289062 " fill-opacity="1" fill-rule="nonzero"/><path fill="#f4fbf8" d="M 244.855469 192.917969 C 242.921875 193.410156 240.878906 194.644531 239.964844 195.804688 L 239.296875 196.648438 L 239.085938 195.417969 C 238.769531 193.761719 237.433594 192.777344 235.53125 192.777344 C 234.265625 192.777344 233.84375 192.953125 233.105469 193.867188 L 232.1875 194.960938 L 232.1875 209 C 232.1875 223.957031 232.292969 224.976562 233.878906 225.820312 C 234.792969 226.3125 236.585938 226.3125 237.503906 225.855469 C 239.050781 225.011719 239.226562 223.957031 239.226562 214.699219 C 239.226562 209.703125 239.402344 205.410156 239.613281 204.636719 C 239.789062 203.933594 240.527344 202.738281 241.234375 202.066406 C 243.167969 200.097656 244.890625 199.464844 248.304688 199.464844 C 251.121094 199.464844 251.296875 199.429688 252.316406 198.410156 C 253.265625 197.457031 253.371094 197.140625 253.195312 195.910156 C 253.089844 195.136719 252.738281 194.1875 252.386719 193.796875 C 251.191406 192.460938 247.882812 192.074219 244.855469 192.917969 Z M 244.855469 192.917969 " fill-opacity="1" fill-rule="nonzero"/><path fill="#f4fbf8" d="M 282.894531 192.988281 C 278.742188 194.117188 274.589844 197.351562 272.585938 201.082031 C 270.648438 204.671875 270.015625 210.019531 271.074219 214.066406 C 272.972656 221.28125 279.800781 226.523438 287.328125 226.558594 C 291.550781 226.558594 295.457031 225.257812 298.203125 222.898438 C 300.804688 220.683594 300.980469 218.5 298.660156 217.09375 C 297.359375 216.285156 296.40625 216.496094 294.121094 218.007812 C 291.234375 219.945312 288.03125 220.542969 285.113281 219.699219 C 280.539062 218.359375 277.96875 215.191406 277.652344 210.511719 C 277.441406 207.03125 278.179688 204.601562 280.222656 202.347656 C 283.878906 198.269531 289.195312 197.84375 294.261719 201.222656 C 296.511719 202.738281 296.902344 202.84375 298.097656 202.242188 C 299.363281 201.609375 300.101562 200.414062 300.101562 199.042969 C 300.101562 197.984375 299.855469 197.492188 298.800781 196.472656 C 295.28125 193.058594 288.316406 191.511719 282.894531 192.988281 Z M 282.894531 192.988281 " fill-opacity="1" fill-rule="nonzero"/><path fill="#f4fbf8" d="M 316.394531 192.777344 C 312.417969 193.585938 307.773438 197.070312 305.804688 200.800781 C 303.023438 206.042969 302.847656 212.730469 305.417969 217.796875 C 306.964844 220.894531 309.605469 223.53125 312.628906 225.011719 C 314.882812 226.136719 315.621094 226.3125 318.472656 226.453125 C 322.554688 226.664062 325.332031 225.855469 328.359375 223.53125 L 330.363281 221.984375 L 330.363281 223.003906 C 330.363281 223.601562 330.75 224.484375 331.28125 225.117188 C 332.511719 226.59375 334.726562 226.664062 336.03125 225.292969 C 336.875 224.414062 336.875 224.308594 336.980469 216.25 C 337.121094 207.171875 336.875 205.058594 335.21875 201.644531 C 333.953125 198.9375 330.855469 195.664062 328.359375 194.398438 C 324.910156 192.671875 320.265625 192.039062 316.394531 192.777344 Z M 324.207031 199.957031 C 331.949219 203.40625 332.195312 215.121094 324.59375 219.097656 C 323.117188 219.875 322.339844 220.050781 320.160156 220.050781 C 317.871094 220.050781 317.273438 219.910156 315.65625 219.027344 C 312.101562 217.058594 310.554688 214.207031 310.519531 209.667969 C 310.484375 207.277344 310.660156 206.324219 311.292969 204.917969 C 312.734375 201.820312 315.023438 199.886719 318.046875 199.253906 C 320.40625 198.761719 321.882812 198.9375 324.207031 199.957031 Z M 324.207031 199.957031 " fill-opacity="1" fill-rule="nonzero"/><path fill="#f4fbf8" d="M 348.804688 192.742188 C 345.53125 193.550781 343.171875 195.453125 341.871094 198.375 C 340.816406 200.765625 341.097656 204.566406 342.503906 206.570312 C 344.125 208.859375 346.199219 210.230469 349.613281 211.289062 C 354.785156 212.871094 355.699219 213.222656 356.757812 214.136719 C 357.636719 214.839844 357.8125 215.261719 357.8125 216.53125 C 357.8125 217.796875 357.636719 218.21875 356.757812 218.957031 C 354.257812 221.035156 350 220.542969 346.550781 217.726562 C 345.355469 216.742188 343.804688 216.425781 342.503906 216.917969 C 341.835938 217.199219 340.921875 218.851562 340.921875 219.875 C 340.921875 220.789062 343.382812 223.460938 345.25 224.589844 C 349.402344 227.015625 354.996094 227.226562 359.113281 225.117188 C 363.160156 223.074219 364.707031 220.191406 364.425781 215.441406 C 364.179688 211.5 362.421875 209.140625 358.515625 207.417969 C 357.847656 207.136719 355.664062 206.394531 353.730469 205.796875 C 349.4375 204.53125 348.3125 203.757812 348.3125 202.101562 C 348.3125 200.449219 348.59375 199.851562 349.753906 199.289062 C 351.96875 198.125 355.910156 198.902344 358.761719 201.082031 C 360.203125 202.171875 361.121094 202.136719 362.28125 201.011719 C 363.054688 200.238281 363.160156 199.886719 362.984375 198.550781 C 362.703125 196.015625 360.273438 193.941406 356.507812 192.953125 C 354.398438 192.390625 350.667969 192.320312 348.804688 192.742188 Z M 348.804688 192.742188 " fill-opacity="1" fill-rule="nonzero"/><path fill="#f4fbf8" d="M 50.6875 193.480469 C 49 195.066406 48.894531 194.609375 54.277344 210.230469 C 58.957031 223.8125 59.308594 224.660156 60.398438 225.503906 C 61.597656 226.453125 64.269531 226.453125 65.503906 225.503906 C 66.453125 224.730469 66.558594 224.484375 70.535156 212.34375 C 71.976562 207.910156 73.207031 204.214844 73.277344 204.144531 C 73.347656 204.074219 74.96875 208.613281 76.832031 214.242188 C 79.753906 222.96875 80.421875 224.589844 81.300781 225.328125 C 82.992188 226.769531 85.839844 226.382812 87.039062 224.554688 C 87.355469 224.097656 88.796875 220.367188 90.273438 216.25 C 91.71875 212.167969 93.933594 206.113281 95.164062 202.808594 C 96.398438 199.535156 97.417969 196.332031 97.417969 195.664062 C 97.417969 193.304688 94.601562 192.003906 92 193.164062 C 90.625 193.796875 90.273438 194.714844 85.171875 211.5 C 84.503906 213.785156 83.835938 215.652344 83.695312 215.652344 C 83.589844 215.652344 83.273438 214.910156 83.0625 213.960938 C 82.816406 213.046875 81.335938 208.402344 79.789062 203.617188 C 76.585938 193.65625 76.09375 192.777344 73.664062 192.777344 C 71.90625 192.777344 70.535156 193.691406 69.832031 195.347656 C 69.582031 195.980469 68.070312 200.660156 66.488281 205.796875 C 63.003906 217.023438 63.285156 216.144531 63.144531 215.96875 C 63.074219 215.898438 61.632812 211.324219 59.941406 205.796875 C 56.632812 194.996094 56.316406 194.152344 55.121094 193.339844 C 53.996094 192.53125 51.636719 192.601562 50.6875 193.480469 Z M 50.6875 193.480469 " fill-opacity="1" fill-rule="nonzero"/><path fill="#f4fbf8" d="M 259.320312 193.691406 L 258.230469 194.609375 L 258.230469 224.34375 L 259.109375 225.292969 C 260.410156 226.699219 263.191406 226.488281 264.457031 224.835938 C 264.773438 224.414062 264.878906 220.578125 264.914062 209.597656 C 264.914062 201.539062 264.808594 194.679688 264.703125 194.363281 C 264.386719 193.585938 262.734375 192.777344 261.429688 192.777344 C 260.832031 192.777344 259.953125 193.164062 259.320312 193.691406 Z M 259.320312 193.691406 " fill-opacity="1" fill-rule="nonzero"/><path fill="#f4fbf8" d="M 33.9375 243.695312 C 33.65625 244.257812 32.566406 246.898438 31.441406 249.605469 C 30.347656 252.316406 29.363281 254.746094 29.257812 254.992188 C 29.117188 255.34375 29.398438 255.449219 30.382812 255.34375 C 31.617188 255.238281 31.792969 255.097656 32.285156 253.722656 L 32.8125 252.246094 L 37.597656 252.246094 L 38.371094 253.828125 C 39.074219 255.238281 39.285156 255.414062 40.34375 255.414062 C 41.75 255.414062 41.820312 255.765625 38.96875 248.972656 C 37.808594 246.300781 36.894531 243.976562 36.894531 243.800781 C 36.894531 243.378906 35.699219 242.746094 34.992188 242.746094 C 34.675781 242.746094 34.21875 243.167969 33.9375 243.695312 Z M 36.15625 247.988281 C 36.542969 249.042969 36.859375 249.960938 36.789062 249.996094 C 36.472656 250.207031 33.726562 250.347656 33.726562 250.136719 C 33.726562 249.714844 35.203125 245.878906 35.34375 245.984375 C 35.378906 246.054688 35.769531 246.933594 36.15625 247.988281 Z M 36.15625 247.988281 " fill-opacity="1" fill-rule="nonzero"/><path fill="#f4fbf8" d="M 73.066406 243.449219 C 71.378906 244.363281 70.464844 245.5625 69.972656 247.636719 C 68.984375 251.71875 71.765625 255.414062 75.8125 255.414062 C 79.261719 255.414062 81.933594 252.667969 81.933594 249.113281 C 81.933594 246.722656 81.054688 245.03125 79.15625 243.800781 C 77.289062 242.535156 75.039062 242.429688 73.066406 243.449219 Z M 77.992188 245.773438 C 79.929688 247.039062 79.929688 250.664062 78.0625 252.351562 C 77.078125 253.230469 76.691406 253.335938 75.53125 253.195312 C 74.757812 253.089844 73.839844 252.738281 73.488281 252.421875 C 72.574219 251.578125 71.976562 249.605469 72.222656 248.234375 C 72.433594 247.144531 73.804688 245.492188 74.898438 245.101562 C 75.601562 244.820312 77.007812 245.136719 77.992188 245.773438 Z M 77.992188 245.773438 " fill-opacity="1" fill-rule="nonzero"/><path fill="#f4fbf8" d="M 107.058594 243.027344 C 106.742188 243.238281 101.992188 254.640625 101.992188 255.203125 C 101.992188 255.34375 102.484375 255.414062 103.082031 255.34375 C 104.246094 255.238281 104.5625 254.921875 105.160156 253.195312 C 105.476562 252.28125 105.582031 252.246094 107.9375 252.246094 L 110.367188 252.246094 L 111 253.863281 C 111.5625 255.378906 111.667969 255.449219 112.867188 255.34375 C 113.570312 255.273438 114.097656 255.0625 114.0625 254.886719 C 113.886719 253.902344 109.207031 243.238281 108.890625 243.027344 C 108.679688 242.886719 108.253906 242.746094 107.972656 242.746094 C 107.691406 242.746094 107.269531 242.886719 107.058594 243.027344 Z M 108.890625 248.164062 L 109.664062 250.066406 L 108.890625 250.277344 C 107.621094 250.628906 106.566406 250.523438 106.566406 250.03125 C 106.566406 249.429688 107.726562 246.265625 107.9375 246.265625 C 108.078125 246.265625 108.503906 247.109375 108.890625 248.164062 Z M 108.890625 248.164062 " fill-opacity="1" fill-rule="nonzero"/><path fill="#f4fbf8" d="M 151.996094 243.378906 C 151.433594 244.433594 147.386719 254.710938 147.386719 255.0625 C 147.386719 255.273438 147.878906 255.414062 148.441406 255.414062 C 149.390625 255.414062 149.601562 255.203125 150.199219 253.828125 L 150.867188 252.246094 L 155.726562 252.246094 L 156.324219 253.828125 C 156.886719 255.273438 157.0625 255.414062 158.152344 255.414062 C 158.820312 255.414062 159.347656 255.273438 159.347656 255.132812 C 159.347656 254.957031 158.960938 253.902344 158.503906 252.738281 C 154.667969 243.308594 154.351562 242.746094 152.945312 242.746094 C 152.628906 242.746094 152.171875 243.027344 151.996094 243.378906 Z M 154.035156 247.707031 C 154.28125 248.515625 154.5625 249.359375 154.632812 249.605469 C 154.773438 249.925781 154.351562 250.101562 153.367188 250.207031 C 152.558594 250.277344 151.855469 250.242188 151.75 250.101562 C 151.574219 249.785156 153.050781 246.265625 153.367188 246.265625 C 153.507812 246.265625 153.789062 246.898438 154.035156 247.707031 Z M 154.035156 247.707031 " fill-opacity="1" fill-rule="nonzero"/><path fill="#f4fbf8" d="M 195.242188 243.519531 C 192.496094 244.925781 191.230469 247.777344 192.039062 250.839844 C 192.8125 253.722656 195.066406 255.414062 198.160156 255.414062 C 202.207031 255.414062 204.917969 251.753906 203.96875 247.601562 C 203.546875 245.597656 202.417969 244.1875 200.730469 243.414062 C 198.796875 242.535156 197.140625 242.570312 195.242188 243.519531 Z M 200.625 246.300781 C 202.347656 248.164062 201.890625 251.683594 199.746094 252.808594 C 195.839844 254.816406 192.285156 249.324219 195.453125 246.160156 C 197 244.609375 199.042969 244.644531 200.625 246.300781 Z M 200.625 246.300781 " fill-opacity="1" fill-rule="nonzero"/><path fill="#f4fbf8" d="M 247.953125 243.132812 C 246.933594 243.519531 245.914062 245.3125 245.914062 246.722656 C 245.914062 248.128906 247.285156 249.324219 249.785156 250.207031 C 252.140625 251.050781 252.738281 251.753906 251.894531 252.773438 C 251.332031 253.441406 249.535156 253.441406 248.234375 252.773438 C 246.898438 252.070312 246.371094 252.105469 245.878906 253.019531 C 245.527344 253.652344 245.597656 253.863281 246.300781 254.394531 C 247.390625 255.238281 249.042969 255.554688 251.121094 255.308594 C 254.21875 254.957031 255.800781 251.753906 253.9375 249.644531 C 253.476562 249.148438 252.105469 248.375 250.839844 247.953125 C 249.042969 247.320312 248.515625 246.96875 248.445312 246.371094 C 248.375 245.773438 248.585938 245.457031 249.253906 245.136719 C 250.03125 244.785156 250.453125 244.855469 251.894531 245.457031 C 253.40625 246.125 253.617188 246.125 253.757812 245.597656 C 253.863281 245.277344 254.042969 244.785156 254.148438 244.46875 C 254.675781 243.238281 250.242188 242.324219 247.953125 243.132812 Z M 247.953125 243.132812 " fill-opacity="1" fill-rule="nonzero"/><path fill="#f4fbf8" d="M 298.132812 243.132812 C 297.78125 243.695312 293.417969 254.746094 293.417969 255.0625 C 293.417969 255.273438 293.910156 255.414062 294.472656 255.414062 C 295.421875 255.414062 295.632812 255.203125 296.230469 253.828125 L 296.902344 252.246094 L 301.6875 252.246094 L 302.320312 253.828125 C 302.917969 255.273438 303.09375 255.414062 304.183594 255.414062 C 304.851562 255.414062 305.382812 255.273438 305.382812 255.097656 C 305.382812 254.921875 304.746094 253.195312 303.9375 251.296875 C 303.164062 249.394531 302.109375 246.792969 301.617188 245.492188 C 300.769531 243.308594 300.664062 243.167969 299.503906 243.027344 C 298.835938 242.957031 298.238281 242.992188 298.132812 243.132812 Z M 299.75 246.792969 C 299.75 247.109375 300.066406 247.953125 300.453125 248.726562 L 301.160156 250.101562 L 299.925781 250.347656 C 297.78125 250.734375 297.535156 250.417969 298.34375 248.375 C 298.730469 247.390625 299.046875 246.511719 299.046875 246.441406 C 299.046875 246.335938 299.222656 246.265625 299.398438 246.265625 C 299.609375 246.265625 299.75 246.511719 299.75 246.792969 Z M 299.75 246.792969 " fill-opacity="1" fill-rule="nonzero"/><path fill="#f4fbf8" d="M 326.667969 243.414062 C 325.894531 243.835938 324.875 244.714844 324.382812 245.457031 C 323.644531 246.511719 323.503906 247.144531 323.503906 249.253906 C 323.503906 251.472656 323.609375 251.929688 324.523438 253.089844 C 325.683594 254.640625 327.304688 255.414062 329.308594 255.414062 C 335.503906 255.414062 337.859375 247.460938 332.757812 243.695312 C 331.351562 242.640625 328.429688 242.535156 326.667969 243.414062 Z M 331.84375 246.195312 C 333.707031 247.917969 333.425781 251.332031 331.28125 252.632812 C 329.941406 253.441406 328.851562 253.476562 327.550781 252.703125 C 326.28125 251.964844 325.789062 250.875 325.789062 248.902344 C 325.789062 245.386719 329.308594 243.800781 331.84375 246.195312 Z M 331.84375 246.195312 " fill-opacity="1" fill-rule="nonzero"/><path fill="#f4fbf8" d="M 341.449219 243.0625 C 340.289062 243.554688 339.476562 244.714844 339.265625 246.230469 C 339.089844 247.460938 339.195312 247.777344 340.113281 248.65625 C 340.710938 249.253906 341.941406 249.925781 343.101562 250.277344 C 345.214844 250.875 345.953125 251.789062 345.144531 252.773438 C 344.582031 253.476562 343.242188 253.441406 341.167969 252.703125 C 339.691406 252.175781 339.441406 252.175781 339.160156 252.597656 C 338.949219 252.878906 338.808594 253.335938 338.808594 253.582031 C 338.808594 254.324219 341.625 255.414062 343.628906 255.414062 C 345.179688 255.414062 345.671875 255.238281 346.621094 254.394531 C 347.605469 253.511719 347.78125 253.125 347.78125 251.71875 C 347.78125 249.75 347.148438 249.113281 344.054688 247.988281 C 341.765625 247.144531 341.0625 246.160156 342.1875 245.3125 C 343.03125 244.679688 343.699219 244.75 345.25 245.527344 C 346.515625 246.160156 346.585938 246.160156 346.902344 245.5625 C 347.535156 244.398438 347.289062 243.765625 346.023438 243.238281 C 344.722656 242.710938 342.574219 242.605469 341.449219 243.0625 Z M 341.449219 243.0625 " fill-opacity="1" fill-rule="nonzero"/><path fill="#f4fbf8" d="M 44.214844 247.566406 C 44.25 250.066406 44.496094 252.492188 44.707031 253.019531 C 45.585938 255.273438 49.527344 256.1875 51.953125 254.710938 C 53.714844 253.617188 54.136719 252.210938 54.136719 247.320312 L 54.136719 243.097656 L 51.671875 243.097656 L 51.671875 247.460938 C 51.671875 251.789062 51.671875 251.859375 50.757812 252.5625 C 49.597656 253.476562 48.472656 253.511719 47.414062 252.632812 C 46.605469 252 46.570312 251.683594 46.464844 247.53125 L 46.324219 243.097656 L 44.109375 243.097656 Z M 44.214844 247.566406 " fill-opacity="1" fill-rule="nonzero"/><path fill="#f4fbf8" d="M 58.148438 243.871094 C 58.253906 244.328125 58.359375 244.785156 58.359375 244.925781 C 58.359375 245.101562 58.816406 245.207031 59.378906 245.207031 C 61.527344 245.207031 61.527344 245.171875 61.527344 250.523438 L 61.527344 255.414062 L 63.988281 255.414062 L 63.988281 245.207031 L 65.75 245.207031 C 67.472656 245.207031 67.507812 245.171875 67.507812 244.152344 L 67.507812 243.097656 L 57.9375 243.097656 Z M 58.148438 243.871094 " fill-opacity="1" fill-rule="nonzero"/><path fill="#f4fbf8" d="M 86.507812 249.253906 L 86.507812 255.414062 L 89.007812 255.414062 L 88.972656 251.789062 C 88.9375 249.820312 88.9375 248.023438 88.972656 247.847656 C 88.972656 247.636719 89.535156 248.445312 90.203125 249.644531 C 91.542969 252 92.28125 252.773438 92.808594 252.457031 C 92.984375 252.316406 93.6875 251.296875 94.320312 250.136719 C 94.953125 248.972656 95.589844 248.023438 95.730469 248.023438 C 95.90625 248.023438 96.011719 249.679688 96.011719 251.71875 L 96.011719 255.414062 L 98.121094 255.414062 L 98.121094 243.097656 L 96.925781 243.097656 C 95.765625 243.097656 95.625 243.238281 94.039062 246.125 L 92.421875 249.148438 L 91.613281 247.777344 C 91.191406 247.039062 90.414062 245.703125 89.886719 244.75 C 89.042969 243.273438 88.796875 243.097656 87.742188 243.097656 L 86.507812 243.097656 Z M 86.507812 249.253906 " fill-opacity="1" fill-rule="nonzero"/><path fill="#f4fbf8" d="M 115.714844 244.117188 C 115.714844 245.101562 115.785156 245.171875 117.40625 245.277344 L 119.058594 245.386719 L 119.164062 250.382812 L 119.269531 255.414062 L 121.699219 255.414062 L 121.699219 250.488281 C 121.699219 245.03125 121.523438 245.421875 124.160156 245.136719 C 124.828125 245.066406 125.074219 244.785156 125.144531 244.046875 L 125.25 243.097656 L 115.714844 243.097656 Z M 115.714844 244.117188 " fill-opacity="1" fill-rule="nonzero"/><path fill="#f4fbf8" d="M 128.488281 249.148438 L 128.558594 255.238281 L 129.722656 255.34375 L 130.847656 255.449219 L 130.847656 243.097656 L 128.382812 243.097656 Z M 128.488281 249.148438 " fill-opacity="1" fill-rule="nonzero"/><path fill="#f4fbf8" d="M 135.492188 244.222656 L 135.597656 245.386719 L 138.34375 245.242188 C 141.542969 245.101562 141.613281 245.242188 139.714844 247.8125 C 136.160156 252.5625 135.070312 254.21875 135.140625 254.710938 C 135.246094 255.132812 136.089844 255.238281 139.925781 255.34375 L 144.570312 255.449219 L 144.570312 252.878906 L 141.578125 253.089844 C 139.925781 253.195312 138.589844 253.195312 138.589844 253.125 C 138.589844 253.019531 139.925781 251.226562 141.542969 249.113281 C 143.199219 247.003906 144.535156 244.960938 144.570312 244.609375 C 144.746094 243.097656 144.746094 243.097656 139.960938 243.097656 L 135.386719 243.097656 Z M 135.492188 244.222656 " fill-opacity="1" fill-rule="nonzero"/><path fill="#f4fbf8" d="M 162.9375 249.148438 L 163.042969 255.238281 L 164.171875 255.34375 L 165.296875 255.449219 L 165.402344 251.542969 L 165.507812 247.601562 L 168.253906 251.507812 C 170.679688 254.992188 171.101562 255.414062 172.015625 255.414062 L 173.074219 255.414062 L 173.074219 243.097656 L 170.785156 243.097656 L 170.890625 247.003906 C 170.996094 249.464844 170.890625 250.839844 170.679688 250.699219 C 170.503906 250.59375 169.378906 249.113281 168.179688 247.425781 C 165.15625 243.0625 165.191406 243.097656 163.960938 243.097656 L 162.867188 243.097656 Z M 162.9375 249.148438 " fill-opacity="1" fill-rule="nonzero"/><path fill="#f4fbf8" d="M 177.648438 249.289062 L 177.648438 255.484375 L 180.917969 255.34375 C 184.71875 255.167969 186.023438 254.605469 187.394531 252.5625 C 188.625 250.699219 188.695312 247.671875 187.570312 245.84375 C 186.304688 243.800781 184.578125 243.097656 180.847656 243.097656 L 177.648438 243.097656 Z M 183.980469 245.667969 C 184.472656 245.914062 185.140625 246.6875 185.496094 247.425781 C 186.09375 248.585938 186.09375 248.902344 185.671875 250.207031 C 185.105469 252 183.980469 252.84375 181.800781 253.160156 L 180.109375 253.371094 L 180.109375 245.207031 L 181.625 245.207031 C 182.433594 245.207031 183.488281 245.421875 183.980469 245.667969 Z M 183.980469 245.667969 " fill-opacity="1" fill-rule="nonzero"/><path fill="#f4fbf8" d="M 219.519531 249.21875 L 219.519531 255.414062 L 221.632812 255.414062 L 221.632812 253.089844 C 221.632812 250.804688 221.632812 250.804688 222.582031 250.910156 C 223.320312 250.980469 223.921875 251.542969 224.976562 253.125 C 226.242188 254.992188 226.558594 255.238281 227.71875 255.34375 C 228.425781 255.414062 229.023438 255.34375 229.023438 255.167969 C 229.023438 255.027344 228.425781 253.9375 227.683594 252.773438 L 226.347656 250.664062 L 227.507812 249.570312 C 228.496094 248.621094 228.671875 248.234375 228.671875 246.863281 C 228.671875 245.667969 228.460938 244.996094 227.824219 244.257812 C 227.015625 243.308594 226.839844 243.273438 223.25 243.167969 L 219.519531 243.027344 Z M 225.644531 245.773438 C 226.3125 246.40625 226.382812 247.707031 225.785156 248.304688 C 225.539062 248.550781 224.519531 248.726562 223.496094 248.726562 L 221.632812 248.726562 L 221.632812 245.207031 L 223.355469 245.207031 C 224.484375 245.207031 225.292969 245.421875 225.644531 245.773438 Z M 225.644531 245.773438 " fill-opacity="1" fill-rule="nonzero"/><path fill="#f4fbf8" d="M 233.351562 249.148438 L 233.421875 255.238281 L 241.867188 255.238281 L 241.972656 254.078125 L 242.078125 252.914062 L 235.882812 253.125 L 235.777344 251.613281 L 235.671875 250.136719 L 238.488281 250.136719 C 241.269531 250.136719 241.339844 250.101562 241.339844 249.289062 C 241.339844 248.269531 240.210938 247.917969 237.574219 248.058594 L 235.882812 248.164062 L 235.777344 246.6875 L 235.671875 245.207031 L 242.042969 245.207031 L 242.042969 243.097656 L 233.28125 243.097656 Z M 233.351562 249.148438 " fill-opacity="1" fill-rule="nonzero"/><path fill="#f4fbf8" d="M 258.582031 247.671875 C 258.582031 252.808594 258.933594 253.972656 260.691406 254.886719 C 261.921875 255.519531 264.773438 255.554688 265.96875 254.957031 C 266.425781 254.710938 267.203125 253.972656 267.625 253.335938 C 268.363281 252.246094 268.433594 251.753906 268.433594 247.636719 L 268.433594 243.097656 L 265.96875 243.097656 L 265.96875 247.496094 C 265.96875 251.4375 265.898438 251.964844 265.265625 252.597656 C 264.386719 253.476562 262.769531 253.511719 261.78125 252.667969 C 261.113281 252.140625 261.042969 251.648438 260.972656 247.671875 L 260.867188 243.273438 L 259.742188 243.167969 L 258.582031 243.0625 Z M 258.582031 247.671875 " fill-opacity="1" fill-rule="nonzero"/><path fill="#f4fbf8" d="M 273.007812 249.253906 L 273.007812 255.414062 L 281.101562 255.414062 L 281.101562 253.089844 L 278.285156 253.160156 L 275.472656 253.265625 L 275.472656 243.097656 L 273.007812 243.097656 Z M 273.007812 249.253906 " fill-opacity="1" fill-rule="nonzero"/><path fill="#f4fbf8" d="M 282.648438 243.871094 C 282.753906 244.328125 282.824219 244.855469 282.824219 245.03125 C 282.859375 245.242188 283.527344 245.351562 284.445312 245.277344 L 286.027344 245.136719 L 286.027344 255.414062 L 288.457031 255.414062 L 288.5625 250.382812 L 288.667969 245.386719 L 290.355469 245.277344 C 291.9375 245.171875 292.007812 245.101562 292.007812 244.117188 L 292.007812 243.097656 L 287.257812 243.097656 C 282.542969 243.097656 282.507812 243.097656 282.648438 243.871094 Z M 282.648438 243.871094 " fill-opacity="1" fill-rule="nonzero"/><path fill="#f4fbf8" d="M 309.425781 249.148438 L 309.460938 255.238281 L 312.628906 255.203125 C 315.304688 255.203125 316.042969 255.0625 317.097656 254.394531 C 320.476562 252.316406 320.933594 247.320312 317.976562 244.644531 C 316.570312 243.34375 315.726562 243.097656 312.523438 243.097656 L 309.390625 243.097656 Z M 315.550781 245.703125 C 317.273438 246.617188 317.871094 249.183594 316.78125 251.226562 C 316.183594 252.421875 314.460938 253.300781 312.769531 253.300781 L 311.714844 253.300781 L 311.714844 245.207031 L 313.121094 245.207031 C 313.933594 245.207031 314.988281 245.421875 315.550781 245.703125 Z M 315.550781 245.703125 " fill-opacity="1" fill-rule="nonzero"/></svg>