<?xml version="1.0" standalone="no"?>
<!DOCTYPE svg PUBLIC "-//W3C//DTD SVG 20010904//EN"
 "http://www.w3.org/TR/2001/REC-SVG-20010904/DTD/svg10.dtd">
<svg version="1.0" xmlns="http://www.w3.org/2000/svg"
 width="1024.000000pt" height="1024.000000pt" viewBox="0 0 1024.000000 1024.000000"
 preserveAspectRatio="xMidYMid meet">

<g transform="translate(0.000000,1024.000000) scale(0.100000,-0.100000)"
fill="#000000" stroke="none">
<path d="M6475 8393 c-376 -221 -451 -268 -446 -279 2 -5 48 -29 102 -54 87
-39 99 -48 94 -66 -5 -21 -158 -362 -369 -818 -58 -126 -118 -243 -133 -259
-80 -85 -234 -87 -299 -4 -11 14 -60 112 -109 218 l-89 192 24 16 c62 41 128
102 163 151 188 269 6 630 -317 630 -40 0 -95 -7 -122 -15 -114 -34 -216 -139
-254 -263 -38 -122 -23 -209 66 -398 31 -65 166 -355 301 -644 333 -714 326
-700 373 -748 23 -23 67 -54 98 -69 49 -24 69 -28 142 -28 72 0 93 4 135 27
94 49 141 115 223 308 22 52 90 210 152 350 62 140 200 457 307 705 107 247
196 451 197 453 2 2 45 -18 96 -43 98 -49 126 -52 116 -10 -3 13 -29 199 -56
412 -28 213 -53 394 -55 401 -2 6 -13 12 -23 12 -10 0 -153 -79 -317 -177z"/>
<path d="M3919 8120 c-103 -18 -200 -93 -245 -193 -24 -52 -28 -75 -29 -147 0
-106 9 -134 137 -410 174 -375 285 -614 384 -827 229 -494 233 -501 346 -560
46 -24 64 -28 143 -28 76 0 97 4 139 25 59 30 136 104 159 153 17 34 16 38 -3
88 -25 62 -276 612 -485 1059 -80 173 -155 342 -167 375 -47 141 -31 305 42
409 37 52 37 54 17 60 -32 8 -384 5 -438 -4z"/>
<path d="M7185 5380 c-37 -15 -76 -66 -82 -107 -14 -107 86 -183 182 -137 49
23 75 67 75 125 0 91 -93 154 -175 119z"/>
<path d="M5072 5326 c-13 -7 -54 -57 -92 -111 -54 -76 -67 -101 -59 -112 15
-17 159 -18 181 0 30 23 118 140 118 156 0 29 -30 60 -68 71 -46 12 -52 12
-80 -4z"/>
<path d="M5715 5295 c-24 -23 -25 -28 -25 -175 l0 -150 -66 0 c-59 0 -68 -3
-95 -29 -33 -33 -38 -75 -14 -120 18 -36 32 -41 110 -41 l64 0 3 -267 c3 -258
4 -270 27 -321 62 -138 228 -208 403 -171 101 22 148 103 94 166 l-24 27 -80
-11 c-119 -18 -178 5 -213 80 -16 37 -19 68 -19 270 l0 227 125 0 c120 0 127
1 150 25 36 35 35 97 -3 135 -28 27 -30 28 -114 23 -47 -3 -102 -3 -122 1
l-36 7 0 150 c0 146 -1 151 -25 174 -18 19 -35 25 -70 25 -35 0 -52 -6 -70
-25z"/>
<path d="M501 4964 c-155 -42 -279 -158 -330 -311 -20 -59 -21 -83 -21 -508
l0 -447 29 -29 c39 -39 100 -41 136 -4 25 24 25 26 26 227 1 112 1 209 0 216
-3 19 17 14 53 -13 230 -175 590 -60 693 221 119 330 -115 667 -462 663 -38 0
-94 -7 -124 -15z m255 -202 c23 -11 62 -44 88 -73 58 -65 80 -134 74 -230 -18
-243 -301 -354 -482 -188 -73 67 -100 134 -94 236 8 125 79 229 182 267 58 22
179 16 232 -12z"/>
<path d="M3383 4971 c-37 -10 -114 -53 -133 -75 -17 -22 -30 -20 -30 3 0 29
-56 71 -95 71 -21 0 -45 -9 -64 -26 l-31 -26 0 -409 c0 -437 2 -453 49 -479
25 -13 77 -13 102 0 45 24 49 53 49 333 0 283 4 312 53 365 54 58 154 79 220
46 46 -23 66 -43 91 -89 20 -38 21 -58 26 -328 l5 -289 28 -24 c41 -35 99 -33
138 5 l29 29 0 264 c0 145 5 279 10 299 25 90 101 149 191 149 59 0 96 -13
132 -48 61 -57 62 -61 67 -380 l5 -294 28 -24 c30 -26 83 -32 118 -14 45 24
49 53 49 333 0 145 -5 289 -10 318 -22 118 -99 221 -199 267 -49 23 -70 26
-161 26 -125 1 -178 -18 -251 -91 l-47 -45 -37 41 c-55 60 -127 92 -222 97
-43 2 -92 0 -110 -5z"/>
<path d="M4903 4965 c-88 -19 -155 -59 -219 -128 -113 -121 -154 -271 -123
-443 27 -151 123 -274 269 -343 65 -31 86 -36 169 -39 111 -5 182 8 269 50
122 60 163 139 103 199 -37 36 -75 38 -125 4 -89 -60 -117 -70 -206 -70 -90 0
-133 15 -196 68 -28 24 -64 85 -79 135 l-6 22 328 0 c269 0 333 3 349 14 16
12 19 27 19 103 0 59 -7 107 -19 146 -38 116 -141 225 -252 267 -75 28 -198
35 -281 15z m204 -180 c60 -25 102 -63 128 -115 48 -95 60 -90 -220 -90 -280
0 -266 -6 -219 88 42 85 119 131 222 132 29 0 69 -7 89 -15z"/>
<path d="M6750 4966 c-55 -14 -113 -49 -139 -82 l-19 -24 -6 35 c-9 47 -47 75
-101 75 -36 0 -48 -5 -69 -31 l-26 -31 0 -399 c0 -425 3 -454 48 -478 26 -14
77 -14 103 -1 44 24 49 54 49 317 0 142 5 264 11 286 5 20 26 54 46 73 55 56
104 74 201 74 80 0 85 1 114 30 27 27 30 36 25 71 -3 22 -13 49 -23 60 -34 38
-128 49 -214 25z"/>
<path d="M7831 4964 c-118 -32 -236 -124 -293 -230 -55 -102 -73 -254 -43
-369 54 -205 248 -354 462 -355 120 0 231 37 309 104 74 63 79 125 13 165 -37
23 -64 17 -129 -26 -82 -55 -173 -72 -256 -48 -130 38 -203 128 -212 261 -6
99 15 168 73 232 104 116 255 128 399 32 64 -43 75 -46 109 -29 36 18 57 52
57 91 0 30 -7 44 -37 73 -100 97 -298 141 -452 99z"/>
<path d="M8783 4970 c-113 -23 -245 -122 -301 -228 -79 -149 -84 -339 -11
-483 44 -88 119 -163 205 -205 64 -32 85 -37 166 -41 116 -6 195 17 281 83
l57 44 0 -29 c0 -17 11 -42 26 -60 35 -42 98 -44 135 -5 24 25 24 28 27 257 4
258 -3 318 -50 415 -36 77 -124 170 -195 206 -98 49 -230 67 -340 46z m222
-204 c220 -98 227 -431 11 -544 -42 -22 -64 -27 -126 -27 -65 0 -82 4 -128 29
-101 56 -145 137 -146 266 -1 68 4 95 22 135 41 88 106 143 192 161 67 14 109
9 175 -20z"/>
<path d="M9704 4971 c-93 -23 -160 -77 -197 -160 -30 -68 -22 -176 18 -233 46
-65 105 -104 202 -134 147 -45 173 -55 203 -81 25 -20 30 -32 30 -68 0 -36 -5
-48 -30 -69 -71 -59 -192 -45 -290 35 -34 28 -78 37 -115 23 -19 -8 -45 -55
-45 -84 0 -26 70 -102 123 -134 118 -69 277 -75 394 -15 115 58 159 140 151
275 -7 112 -57 179 -168 228 -19 8 -81 29 -136 46 -122 36 -154 58 -154 105 0
47 8 64 41 80 63 33 175 11 256 -51 41 -31 67 -30 100 2 22 22 25 32 20 70 -8
72 -77 131 -184 159 -60 16 -166 18 -219 6z"/>
<path d="M1232 4950 c-48 -45 -51 -32 102 -476 133 -386 143 -410 174 -434 34
-27 110 -27 145 0 27 22 30 29 143 374 41 126 76 231 78 233 2 2 48 -127 101
-287 83 -248 102 -294 127 -315 48 -41 129 -30 163 22 9 13 50 119 92 236 41
116 104 288 139 382 35 93 64 184 64 203 0 67 -80 104 -154 71 -39 -18 -49
-44 -194 -521 -19 -65 -38 -118 -42 -118 -3 0 -12 21 -18 48 -7 26 -49 158
-93 294 -91 283 -105 308 -174 308 -50 0 -89 -26 -109 -73 -7 -18 -50 -151
-95 -297 -99 -319 -91 -294 -95 -289 -2 2 -43 132 -91 289 -94 307 -103 331
-137 354 -32 23 -99 21 -126 -4z"/>
<path d="M7161 4944 l-31 -26 0 -422 0 -423 25 -27 c37 -40 116 -34 152 13 9
12 12 121 13 433 0 229 -3 424 -6 433 -9 22 -56 45 -93 45 -17 0 -42 -11 -60
-26z"/>
<path d="M756 3523 c-8 -16 -39 -91 -71 -168 -31 -77 -59 -146 -62 -153 -4
-10 4 -13 32 -10 35 3 40 7 54 46 l15 42 68 0 68 0 22 -45 c20 -40 26 -45 56
-45 40 0 42 -10 -39 183 -33 76 -59 142 -59 147 0 12 -34 30 -54 30 -9 0 -22
-12 -30 -27z m63 -122 c11 -30 20 -56 18 -57 -9 -6 -87 -10 -87 -4 0 12 42
121 46 118 1 -2 12 -27 23 -57z"/>
<path d="M1868 3530 c-48 -26 -74 -60 -88 -119 -28 -116 51 -221 166 -221 98
0 174 78 174 179 0 68 -25 116 -79 151 -53 36 -117 39 -173 10z m140 -66 c55
-36 55 -139 2 -187 -28 -25 -39 -28 -72 -24 -22 3 -48 13 -58 22 -26 24 -43
80 -36 119 6 31 45 78 76 89 20 8 60 -1 88 -19z"/>
<path d="M2834 3542 c-9 -6 -144 -330 -144 -346 0 -4 14 -6 31 -4 33 3 42 12
59 61 9 26 12 27 79 27 l69 0 18 -46 c16 -43 19 -45 53 -42 20 2 35 8 34 13
-5 28 -138 331 -147 337 -6 4 -18 8 -26 8 -8 0 -20 -4 -26 -8z m52 -146 l22
-54 -22 -6 c-36 -10 -66 -7 -66 7 0 17 33 107 39 107 4 0 16 -24 27 -54z"/>
<path d="M4111 3532 c-16 -30 -131 -322 -131 -332 0 -6 14 -10 30 -10 27 0 33
6 50 45 l19 45 69 0 69 0 17 -45 c16 -41 21 -45 52 -45 19 0 34 4 34 8 0 5
-11 35 -24 68 -109 268 -118 284 -158 284 -9 0 -22 -8 -27 -18z m58 -123 c7
-23 15 -47 17 -54 4 -9 -8 -14 -36 -17 -23 -2 -43 -1 -46 3 -5 9 37 109 46
109 4 0 12 -18 19 -41z"/>
<path d="M5340 3528 c-78 -40 -114 -121 -91 -208 22 -82 86 -130 174 -130 115
0 192 104 165 222 -12 57 -44 97 -92 119 -55 25 -102 24 -156 -3z m153 -79
c49 -53 36 -153 -25 -185 -111 -57 -212 99 -122 189 44 44 102 43 147 -4z"/>
<path d="M6838 3539 c-29 -11 -58 -62 -58 -102 0 -40 39 -74 110 -99 67 -24
84 -44 60 -73 -16 -19 -67 -19 -104 0 -38 20 -53 19 -67 -7 -10 -18 -8 -24 12
-39 31 -24 78 -33 137 -26 88 10 133 101 80 161 -13 14 -52 36 -88 48 -51 18
-66 28 -68 45 -2 17 4 26 23 35 22 10 34 8 75 -9 43 -19 49 -19 53 -4 3 9 8
23 11 32 15 35 -111 61 -176 38z"/>
<path d="M8264 3539 c-10 -16 -134 -330 -134 -339 0 -6 14 -10 30 -10 27 0 33
6 50 45 l19 45 68 0 68 0 18 -45 c17 -41 22 -45 53 -45 19 0 34 4 34 9 0 5
-18 54 -41 108 -22 54 -52 128 -66 165 -24 62 -27 66 -60 70 -19 2 -36 1 -39
-3z m46 -104 c0 -9 9 -33 20 -55 l20 -39 -35 -7 c-61 -11 -68 -2 -45 56 11 28
20 53 20 55 0 3 5 5 10 5 6 0 10 -7 10 -15z"/>
<path d="M9075 3531 c-22 -12 -51 -37 -65 -58 -21 -30 -25 -48 -25 -108 0 -63
3 -76 29 -109 33 -44 79 -66 136 -66 176 0 243 226 98 333 -40 30 -123 33
-173 8z m147 -79 c53 -49 45 -146 -16 -183 -38 -23 -69 -24 -106 -2 -36 21
-50 52 -50 108 0 100 100 145 172 77z"/>
<path d="M9495 3541 c-33 -14 -56 -47 -62 -90 -5 -35 -2 -44 24 -69 17 -17 52
-36 85 -46 60 -17 81 -43 58 -71 -16 -20 -54 -19 -113 2 -42 15 -49 15 -57 3
-6 -8 -10 -21 -10 -28 0 -21 80 -52 137 -52 44 0 58 5 85 29 28 25 33 36 33
76 0 56 -18 74 -106 106 -65 24 -85 52 -53 76 24 18 43 16 87 -6 36 -18 38
-18 47 -1 18 33 11 51 -25 66 -37 15 -98 18 -130 5z"/>
<path d="M1048 3413 c1 -71 8 -140 14 -155 25 -64 137 -90 206 -48 50 31 62
71 62 210 l0 120 -35 0 -35 0 0 -124 c0 -123 0 -125 -26 -145 -33 -26 -65 -27
-95 -2 -23 18 -24 27 -27 145 l-4 126 -31 0 -32 0 3 -127z"/>
<path d="M1444 3518 c3 -13 6 -26 6 -30 0 -5 13 -8 29 -8 61 0 61 1 61 -151
l0 -139 35 0 35 0 0 145 0 145 50 0 c49 0 50 1 50 30 l0 30 -136 0 -136 0 6
-22z"/>
<path d="M2250 3365 l0 -175 36 0 35 0 -1 103 c-1 56 -1 107 0 112 0 6 16 -17
35 -51 38 -67 59 -89 74 -80 5 4 25 33 43 66 18 33 36 60 40 60 5 0 8 -47 8
-105 l0 -105 30 0 30 0 0 175 0 175 -34 0 c-33 0 -37 -4 -82 -86 l-46 -86 -23
39 c-12 21 -34 59 -49 86 -24 42 -31 47 -61 47 l-35 0 0 -175z"/>
<path d="M3080 3511 c0 -28 2 -30 48 -33 l47 -3 3 -142 3 -143 34 0 35 0 0
140 c0 155 -5 144 70 152 19 2 26 10 28 31 l3 27 -135 0 -136 0 0 -29z"/>
<path d="M3443 3368 l2 -173 33 -3 32 -3 0 175 0 176 -35 0 -35 0 3 -172z"/>
<path d="M3642 3508 l3 -33 78 4 c91 4 93 0 39 -73 -101 -135 -132 -182 -130
-196 3 -12 27 -15 136 -18 l132 -3 0 37 0 36 -85 -6 c-47 -3 -85 -3 -85 -1 0
3 38 54 84 114 47 60 85 118 86 128 5 43 5 43 -131 43 l-130 0 3 -32z"/>
<path d="M4422 3368 l3 -173 32 -3 32 -3 3 111 3 112 78 -111 c69 -99 81 -111
107 -111 l30 0 0 175 0 175 -32 0 -33 0 3 -111 c3 -70 0 -109 -6 -105 -5 3
-37 45 -71 93 -86 124 -85 123 -120 123 l-31 0 2 -172z"/>
<path d="M4840 3364 l0 -176 93 4 c108 5 145 21 184 79 35 53 37 139 5 191
-36 58 -85 78 -191 78 l-91 0 0 -176z m180 103 c14 -7 33 -29 43 -50 17 -33
17 -42 5 -79 -16 -51 -48 -75 -110 -84 l-48 -6 0 116 0 116 43 0 c23 0 53 -6
67 -13z"/>
<path d="M6030 3366 l0 -176 30 0 30 0 0 66 c0 65 0 65 27 62 21 -2 38 -18 68
-63 36 -53 45 -60 78 -63 20 -2 37 0 37 5 0 4 -17 35 -38 68 l-38 60 33 31
c28 27 33 38 33 77 0 34 -6 53 -24 74 -23 27 -28 28 -130 31 l-106 4 0 -176z
m174 98 c19 -18 21 -55 4 -72 -7 -7 -36 -12 -65 -12 l-53 0 0 50 0 50 49 0
c32 0 55 -6 65 -16z"/>
<path d="M6423 3368 l2 -173 120 0 120 0 3 33 3 33 -88 -3 -88 -3 -3 43 -3 42
80 0 c79 0 81 1 81 24 0 29 -32 39 -107 35 l-48 -3 -3 42 -3 42 90 0 91 0 0
30 0 30 -125 0 -124 0 2 -172z"/>
<path d="M7140 3410 c0 -146 10 -179 60 -205 35 -18 116 -19 150 -2 13 7 35
28 47 46 21 31 23 45 23 162 l0 129 -35 0 -35 0 0 -125 c0 -112 -2 -127 -20
-145 -25 -25 -71 -26 -99 -2 -19 15 -21 29 -23 142 l-3 125 -32 3 -33 3 0
-131z"/>
<path d="M7550 3365 l0 -175 115 0 115 0 0 33 0 33 -80 -2 -80 -3 0 145 0 144
-35 0 -35 0 0 -175z"/>
<path d="M7824 3518 c3 -13 5 -28 5 -33 1 -6 20 -9 46 -7 l45 4 0 -146 0 -146
35 0 34 0 3 143 3 142 48 3 c45 3 47 5 47 33 l0 29 -135 0 c-134 0 -135 0
-131 -22z"/>
<path d="M8585 3368 l1 -173 90 1 c76 0 97 4 127 23 96 59 109 201 25 277 -40
37 -64 44 -155 44 l-89 0 1 -172z m174 98 c49 -26 66 -99 35 -157 -17 -34 -66
-59 -114 -59 l-30 0 0 115 0 115 40 0 c23 0 53 -6 69 -14z"/>
</g>
</svg>
